G04 #@! TF.GenerationSoftware,KiCad,Pcbnew,8.0.4*
G04 #@! TF.CreationDate,2024-08-04T10:49:20-05:00*
G04 #@! TF.ProjectId,DRV5055A4_Test_Board_V0.1,44525635-3035-4354-9134-5f546573745f,rev?*
G04 #@! TF.SameCoordinates,Original*
G04 #@! TF.FileFunction,Legend,Bot*
G04 #@! TF.FilePolarity,Positive*
%FSLAX46Y46*%
G04 Gerber Fmt 4.6, Leading zero omitted, Abs format (unit mm)*
G04 Created by KiCad (PCBNEW 8.0.4) date 2024-08-04 10:49:20*
%MOMM*%
%LPD*%
G01*
G04 APERTURE LIST*
%ADD10C,0.150000*%
%ADD11R,1.700000X1.700000*%
%ADD12O,1.700000X1.700000*%
G04 APERTURE END LIST*
D10*
X21440475Y-28494819D02*
X21107142Y-29494819D01*
X21107142Y-29494819D02*
X20773809Y-28494819D01*
X20011904Y-29447200D02*
X20107142Y-29494819D01*
X20107142Y-29494819D02*
X20297618Y-29494819D01*
X20297618Y-29494819D02*
X20392856Y-29447200D01*
X20392856Y-29447200D02*
X20440475Y-29399580D01*
X20440475Y-29399580D02*
X20488094Y-29304342D01*
X20488094Y-29304342D02*
X20488094Y-29018628D01*
X20488094Y-29018628D02*
X20440475Y-28923390D01*
X20440475Y-28923390D02*
X20392856Y-28875771D01*
X20392856Y-28875771D02*
X20297618Y-28828152D01*
X20297618Y-28828152D02*
X20107142Y-28828152D01*
X20107142Y-28828152D02*
X20011904Y-28875771D01*
X19154761Y-29447200D02*
X19249999Y-29494819D01*
X19249999Y-29494819D02*
X19440475Y-29494819D01*
X19440475Y-29494819D02*
X19535713Y-29447200D01*
X19535713Y-29447200D02*
X19583332Y-29399580D01*
X19583332Y-29399580D02*
X19630951Y-29304342D01*
X19630951Y-29304342D02*
X19630951Y-29018628D01*
X19630951Y-29018628D02*
X19583332Y-28923390D01*
X19583332Y-28923390D02*
X19535713Y-28875771D01*
X19535713Y-28875771D02*
X19440475Y-28828152D01*
X19440475Y-28828152D02*
X19249999Y-28828152D01*
X19249999Y-28828152D02*
X19154761Y-28875771D01*
X26695237Y-20914987D02*
X26695237Y-19914987D01*
X26695237Y-19914987D02*
X26457142Y-19914987D01*
X26457142Y-19914987D02*
X26314285Y-19962606D01*
X26314285Y-19962606D02*
X26219047Y-20057844D01*
X26219047Y-20057844D02*
X26171428Y-20153082D01*
X26171428Y-20153082D02*
X26123809Y-20343558D01*
X26123809Y-20343558D02*
X26123809Y-20486415D01*
X26123809Y-20486415D02*
X26171428Y-20676891D01*
X26171428Y-20676891D02*
X26219047Y-20772129D01*
X26219047Y-20772129D02*
X26314285Y-20867368D01*
X26314285Y-20867368D02*
X26457142Y-20914987D01*
X26457142Y-20914987D02*
X26695237Y-20914987D01*
X25123809Y-20914987D02*
X25457142Y-20438796D01*
X25695237Y-20914987D02*
X25695237Y-19914987D01*
X25695237Y-19914987D02*
X25314285Y-19914987D01*
X25314285Y-19914987D02*
X25219047Y-19962606D01*
X25219047Y-19962606D02*
X25171428Y-20010225D01*
X25171428Y-20010225D02*
X25123809Y-20105463D01*
X25123809Y-20105463D02*
X25123809Y-20248320D01*
X25123809Y-20248320D02*
X25171428Y-20343558D01*
X25171428Y-20343558D02*
X25219047Y-20391177D01*
X25219047Y-20391177D02*
X25314285Y-20438796D01*
X25314285Y-20438796D02*
X25695237Y-20438796D01*
X24838094Y-19914987D02*
X24504761Y-20914987D01*
X24504761Y-20914987D02*
X24171428Y-19914987D01*
X23361904Y-19914987D02*
X23838094Y-19914987D01*
X23838094Y-19914987D02*
X23885713Y-20391177D01*
X23885713Y-20391177D02*
X23838094Y-20343558D01*
X23838094Y-20343558D02*
X23742856Y-20295939D01*
X23742856Y-20295939D02*
X23504761Y-20295939D01*
X23504761Y-20295939D02*
X23409523Y-20343558D01*
X23409523Y-20343558D02*
X23361904Y-20391177D01*
X23361904Y-20391177D02*
X23314285Y-20486415D01*
X23314285Y-20486415D02*
X23314285Y-20724510D01*
X23314285Y-20724510D02*
X23361904Y-20819748D01*
X23361904Y-20819748D02*
X23409523Y-20867368D01*
X23409523Y-20867368D02*
X23504761Y-20914987D01*
X23504761Y-20914987D02*
X23742856Y-20914987D01*
X23742856Y-20914987D02*
X23838094Y-20867368D01*
X23838094Y-20867368D02*
X23885713Y-20819748D01*
X22409523Y-19914987D02*
X22885713Y-19914987D01*
X22885713Y-19914987D02*
X22933332Y-20391177D01*
X22933332Y-20391177D02*
X22885713Y-20343558D01*
X22885713Y-20343558D02*
X22790475Y-20295939D01*
X22790475Y-20295939D02*
X22552380Y-20295939D01*
X22552380Y-20295939D02*
X22457142Y-20343558D01*
X22457142Y-20343558D02*
X22409523Y-20391177D01*
X22409523Y-20391177D02*
X22361904Y-20486415D01*
X22361904Y-20486415D02*
X22361904Y-20724510D01*
X22361904Y-20724510D02*
X22409523Y-20819748D01*
X22409523Y-20819748D02*
X22457142Y-20867368D01*
X22457142Y-20867368D02*
X22552380Y-20914987D01*
X22552380Y-20914987D02*
X22790475Y-20914987D01*
X22790475Y-20914987D02*
X22885713Y-20867368D01*
X22885713Y-20867368D02*
X22933332Y-20819748D01*
X21742856Y-19914987D02*
X21647618Y-19914987D01*
X21647618Y-19914987D02*
X21552380Y-19962606D01*
X21552380Y-19962606D02*
X21504761Y-20010225D01*
X21504761Y-20010225D02*
X21457142Y-20105463D01*
X21457142Y-20105463D02*
X21409523Y-20295939D01*
X21409523Y-20295939D02*
X21409523Y-20534034D01*
X21409523Y-20534034D02*
X21457142Y-20724510D01*
X21457142Y-20724510D02*
X21504761Y-20819748D01*
X21504761Y-20819748D02*
X21552380Y-20867368D01*
X21552380Y-20867368D02*
X21647618Y-20914987D01*
X21647618Y-20914987D02*
X21742856Y-20914987D01*
X21742856Y-20914987D02*
X21838094Y-20867368D01*
X21838094Y-20867368D02*
X21885713Y-20819748D01*
X21885713Y-20819748D02*
X21933332Y-20724510D01*
X21933332Y-20724510D02*
X21980951Y-20534034D01*
X21980951Y-20534034D02*
X21980951Y-20295939D01*
X21980951Y-20295939D02*
X21933332Y-20105463D01*
X21933332Y-20105463D02*
X21885713Y-20010225D01*
X21885713Y-20010225D02*
X21838094Y-19962606D01*
X21838094Y-19962606D02*
X21742856Y-19914987D01*
X20504761Y-19914987D02*
X20980951Y-19914987D01*
X20980951Y-19914987D02*
X21028570Y-20391177D01*
X21028570Y-20391177D02*
X20980951Y-20343558D01*
X20980951Y-20343558D02*
X20885713Y-20295939D01*
X20885713Y-20295939D02*
X20647618Y-20295939D01*
X20647618Y-20295939D02*
X20552380Y-20343558D01*
X20552380Y-20343558D02*
X20504761Y-20391177D01*
X20504761Y-20391177D02*
X20457142Y-20486415D01*
X20457142Y-20486415D02*
X20457142Y-20724510D01*
X20457142Y-20724510D02*
X20504761Y-20819748D01*
X20504761Y-20819748D02*
X20552380Y-20867368D01*
X20552380Y-20867368D02*
X20647618Y-20914987D01*
X20647618Y-20914987D02*
X20885713Y-20914987D01*
X20885713Y-20914987D02*
X20980951Y-20867368D01*
X20980951Y-20867368D02*
X21028570Y-20819748D01*
X27219047Y-22524931D02*
X27219047Y-21524931D01*
X27219047Y-21524931D02*
X26980952Y-21524931D01*
X26980952Y-21524931D02*
X26838095Y-21572550D01*
X26838095Y-21572550D02*
X26742857Y-21667788D01*
X26742857Y-21667788D02*
X26695238Y-21763026D01*
X26695238Y-21763026D02*
X26647619Y-21953502D01*
X26647619Y-21953502D02*
X26647619Y-22096359D01*
X26647619Y-22096359D02*
X26695238Y-22286835D01*
X26695238Y-22286835D02*
X26742857Y-22382073D01*
X26742857Y-22382073D02*
X26838095Y-22477312D01*
X26838095Y-22477312D02*
X26980952Y-22524931D01*
X26980952Y-22524931D02*
X27219047Y-22524931D01*
X25838095Y-22477312D02*
X25933333Y-22524931D01*
X25933333Y-22524931D02*
X26123809Y-22524931D01*
X26123809Y-22524931D02*
X26219047Y-22477312D01*
X26219047Y-22477312D02*
X26266666Y-22382073D01*
X26266666Y-22382073D02*
X26266666Y-22001121D01*
X26266666Y-22001121D02*
X26219047Y-21905883D01*
X26219047Y-21905883D02*
X26123809Y-21858264D01*
X26123809Y-21858264D02*
X25933333Y-21858264D01*
X25933333Y-21858264D02*
X25838095Y-21905883D01*
X25838095Y-21905883D02*
X25790476Y-22001121D01*
X25790476Y-22001121D02*
X25790476Y-22096359D01*
X25790476Y-22096359D02*
X26266666Y-22191597D01*
X25457142Y-21858264D02*
X25219047Y-22524931D01*
X25219047Y-22524931D02*
X24980952Y-21858264D01*
X23504761Y-22001121D02*
X23361904Y-22048740D01*
X23361904Y-22048740D02*
X23314285Y-22096359D01*
X23314285Y-22096359D02*
X23266666Y-22191597D01*
X23266666Y-22191597D02*
X23266666Y-22334454D01*
X23266666Y-22334454D02*
X23314285Y-22429692D01*
X23314285Y-22429692D02*
X23361904Y-22477312D01*
X23361904Y-22477312D02*
X23457142Y-22524931D01*
X23457142Y-22524931D02*
X23838094Y-22524931D01*
X23838094Y-22524931D02*
X23838094Y-21524931D01*
X23838094Y-21524931D02*
X23504761Y-21524931D01*
X23504761Y-21524931D02*
X23409523Y-21572550D01*
X23409523Y-21572550D02*
X23361904Y-21620169D01*
X23361904Y-21620169D02*
X23314285Y-21715407D01*
X23314285Y-21715407D02*
X23314285Y-21810645D01*
X23314285Y-21810645D02*
X23361904Y-21905883D01*
X23361904Y-21905883D02*
X23409523Y-21953502D01*
X23409523Y-21953502D02*
X23504761Y-22001121D01*
X23504761Y-22001121D02*
X23838094Y-22001121D01*
X22695237Y-22524931D02*
X22790475Y-22477312D01*
X22790475Y-22477312D02*
X22838094Y-22429692D01*
X22838094Y-22429692D02*
X22885713Y-22334454D01*
X22885713Y-22334454D02*
X22885713Y-22048740D01*
X22885713Y-22048740D02*
X22838094Y-21953502D01*
X22838094Y-21953502D02*
X22790475Y-21905883D01*
X22790475Y-21905883D02*
X22695237Y-21858264D01*
X22695237Y-21858264D02*
X22552380Y-21858264D01*
X22552380Y-21858264D02*
X22457142Y-21905883D01*
X22457142Y-21905883D02*
X22409523Y-21953502D01*
X22409523Y-21953502D02*
X22361904Y-22048740D01*
X22361904Y-22048740D02*
X22361904Y-22334454D01*
X22361904Y-22334454D02*
X22409523Y-22429692D01*
X22409523Y-22429692D02*
X22457142Y-22477312D01*
X22457142Y-22477312D02*
X22552380Y-22524931D01*
X22552380Y-22524931D02*
X22695237Y-22524931D01*
X21504761Y-22524931D02*
X21504761Y-22001121D01*
X21504761Y-22001121D02*
X21552380Y-21905883D01*
X21552380Y-21905883D02*
X21647618Y-21858264D01*
X21647618Y-21858264D02*
X21838094Y-21858264D01*
X21838094Y-21858264D02*
X21933332Y-21905883D01*
X21504761Y-22477312D02*
X21599999Y-22524931D01*
X21599999Y-22524931D02*
X21838094Y-22524931D01*
X21838094Y-22524931D02*
X21933332Y-22477312D01*
X21933332Y-22477312D02*
X21980951Y-22382073D01*
X21980951Y-22382073D02*
X21980951Y-22286835D01*
X21980951Y-22286835D02*
X21933332Y-22191597D01*
X21933332Y-22191597D02*
X21838094Y-22143978D01*
X21838094Y-22143978D02*
X21599999Y-22143978D01*
X21599999Y-22143978D02*
X21504761Y-22096359D01*
X21028570Y-22524931D02*
X21028570Y-21858264D01*
X21028570Y-22048740D02*
X20980951Y-21953502D01*
X20980951Y-21953502D02*
X20933332Y-21905883D01*
X20933332Y-21905883D02*
X20838094Y-21858264D01*
X20838094Y-21858264D02*
X20742856Y-21858264D01*
X19980951Y-22524931D02*
X19980951Y-21524931D01*
X19980951Y-22477312D02*
X20076189Y-22524931D01*
X20076189Y-22524931D02*
X20266665Y-22524931D01*
X20266665Y-22524931D02*
X20361903Y-22477312D01*
X20361903Y-22477312D02*
X20409522Y-22429692D01*
X20409522Y-22429692D02*
X20457141Y-22334454D01*
X20457141Y-22334454D02*
X20457141Y-22048740D01*
X20457141Y-22048740D02*
X20409522Y-21953502D01*
X20409522Y-21953502D02*
X20361903Y-21905883D01*
X20361903Y-21905883D02*
X20266665Y-21858264D01*
X20266665Y-21858264D02*
X20076189Y-21858264D01*
X20076189Y-21858264D02*
X19980951Y-21905883D01*
X27171428Y-23134875D02*
X27076190Y-23134875D01*
X27076190Y-23134875D02*
X26980952Y-23182494D01*
X26980952Y-23182494D02*
X26933333Y-23230113D01*
X26933333Y-23230113D02*
X26885714Y-23325351D01*
X26885714Y-23325351D02*
X26838095Y-23515827D01*
X26838095Y-23515827D02*
X26838095Y-23753922D01*
X26838095Y-23753922D02*
X26885714Y-23944398D01*
X26885714Y-23944398D02*
X26933333Y-24039636D01*
X26933333Y-24039636D02*
X26980952Y-24087256D01*
X26980952Y-24087256D02*
X27076190Y-24134875D01*
X27076190Y-24134875D02*
X27171428Y-24134875D01*
X27171428Y-24134875D02*
X27266666Y-24087256D01*
X27266666Y-24087256D02*
X27314285Y-24039636D01*
X27314285Y-24039636D02*
X27361904Y-23944398D01*
X27361904Y-23944398D02*
X27409523Y-23753922D01*
X27409523Y-23753922D02*
X27409523Y-23515827D01*
X27409523Y-23515827D02*
X27361904Y-23325351D01*
X27361904Y-23325351D02*
X27314285Y-23230113D01*
X27314285Y-23230113D02*
X27266666Y-23182494D01*
X27266666Y-23182494D02*
X27171428Y-23134875D01*
X26504761Y-23468208D02*
X26266666Y-24134875D01*
X26266666Y-24134875D02*
X26028571Y-23468208D01*
X25647618Y-23753922D02*
X24885714Y-23753922D01*
X24504761Y-23134875D02*
X23838095Y-23134875D01*
X23838095Y-23134875D02*
X24266666Y-24134875D01*
X23552380Y-23468208D02*
X23314285Y-24134875D01*
X23314285Y-24134875D02*
X23076190Y-23468208D01*
X22076189Y-23134875D02*
X21742856Y-24134875D01*
X21742856Y-24134875D02*
X21409523Y-23134875D01*
X20647618Y-24087256D02*
X20742856Y-24134875D01*
X20742856Y-24134875D02*
X20933332Y-24134875D01*
X20933332Y-24134875D02*
X21028570Y-24087256D01*
X21028570Y-24087256D02*
X21076189Y-24039636D01*
X21076189Y-24039636D02*
X21123808Y-23944398D01*
X21123808Y-23944398D02*
X21123808Y-23658684D01*
X21123808Y-23658684D02*
X21076189Y-23563446D01*
X21076189Y-23563446D02*
X21028570Y-23515827D01*
X21028570Y-23515827D02*
X20933332Y-23468208D01*
X20933332Y-23468208D02*
X20742856Y-23468208D01*
X20742856Y-23468208D02*
X20647618Y-23515827D01*
X19790475Y-24087256D02*
X19885713Y-24134875D01*
X19885713Y-24134875D02*
X20076189Y-24134875D01*
X20076189Y-24134875D02*
X20171427Y-24087256D01*
X20171427Y-24087256D02*
X20219046Y-24039636D01*
X20219046Y-24039636D02*
X20266665Y-23944398D01*
X20266665Y-23944398D02*
X20266665Y-23658684D01*
X20266665Y-23658684D02*
X20219046Y-23563446D01*
X20219046Y-23563446D02*
X20171427Y-23515827D01*
X20171427Y-23515827D02*
X20076189Y-23468208D01*
X20076189Y-23468208D02*
X19885713Y-23468208D01*
X19885713Y-23468208D02*
X19790475Y-23515827D01*
X27576190Y-24744819D02*
X27480952Y-24744819D01*
X27480952Y-24744819D02*
X27385714Y-24792438D01*
X27385714Y-24792438D02*
X27338095Y-24840057D01*
X27338095Y-24840057D02*
X27290476Y-24935295D01*
X27290476Y-24935295D02*
X27242857Y-25125771D01*
X27242857Y-25125771D02*
X27242857Y-25363866D01*
X27242857Y-25363866D02*
X27290476Y-25554342D01*
X27290476Y-25554342D02*
X27338095Y-25649580D01*
X27338095Y-25649580D02*
X27385714Y-25697200D01*
X27385714Y-25697200D02*
X27480952Y-25744819D01*
X27480952Y-25744819D02*
X27576190Y-25744819D01*
X27576190Y-25744819D02*
X27671428Y-25697200D01*
X27671428Y-25697200D02*
X27719047Y-25649580D01*
X27719047Y-25649580D02*
X27766666Y-25554342D01*
X27766666Y-25554342D02*
X27814285Y-25363866D01*
X27814285Y-25363866D02*
X27814285Y-25125771D01*
X27814285Y-25125771D02*
X27766666Y-24935295D01*
X27766666Y-24935295D02*
X27719047Y-24840057D01*
X27719047Y-24840057D02*
X27671428Y-24792438D01*
X27671428Y-24792438D02*
X27576190Y-24744819D01*
X26909523Y-25078152D02*
X26671428Y-25744819D01*
X26671428Y-25744819D02*
X26433333Y-25078152D01*
X26052380Y-25363866D02*
X25290476Y-25363866D01*
X24957142Y-24744819D02*
X24623809Y-25744819D01*
X24623809Y-25744819D02*
X24290476Y-24744819D01*
X23528571Y-25697200D02*
X23623809Y-25744819D01*
X23623809Y-25744819D02*
X23814285Y-25744819D01*
X23814285Y-25744819D02*
X23909523Y-25697200D01*
X23909523Y-25697200D02*
X23957142Y-25649580D01*
X23957142Y-25649580D02*
X24004761Y-25554342D01*
X24004761Y-25554342D02*
X24004761Y-25268628D01*
X24004761Y-25268628D02*
X23957142Y-25173390D01*
X23957142Y-25173390D02*
X23909523Y-25125771D01*
X23909523Y-25125771D02*
X23814285Y-25078152D01*
X23814285Y-25078152D02*
X23623809Y-25078152D01*
X23623809Y-25078152D02*
X23528571Y-25125771D01*
X22671428Y-25697200D02*
X22766666Y-25744819D01*
X22766666Y-25744819D02*
X22957142Y-25744819D01*
X22957142Y-25744819D02*
X23052380Y-25697200D01*
X23052380Y-25697200D02*
X23099999Y-25649580D01*
X23099999Y-25649580D02*
X23147618Y-25554342D01*
X23147618Y-25554342D02*
X23147618Y-25268628D01*
X23147618Y-25268628D02*
X23099999Y-25173390D01*
X23099999Y-25173390D02*
X23052380Y-25125771D01*
X23052380Y-25125771D02*
X22957142Y-25078152D01*
X22957142Y-25078152D02*
X22766666Y-25078152D01*
X22766666Y-25078152D02*
X22671428Y-25125771D01*
X21290475Y-24744819D02*
X21099999Y-24744819D01*
X21099999Y-24744819D02*
X21004761Y-24792438D01*
X21004761Y-24792438D02*
X20909523Y-24887676D01*
X20909523Y-24887676D02*
X20861904Y-25078152D01*
X20861904Y-25078152D02*
X20861904Y-25411485D01*
X20861904Y-25411485D02*
X20909523Y-25601961D01*
X20909523Y-25601961D02*
X21004761Y-25697200D01*
X21004761Y-25697200D02*
X21099999Y-25744819D01*
X21099999Y-25744819D02*
X21290475Y-25744819D01*
X21290475Y-25744819D02*
X21385713Y-25697200D01*
X21385713Y-25697200D02*
X21480951Y-25601961D01*
X21480951Y-25601961D02*
X21528570Y-25411485D01*
X21528570Y-25411485D02*
X21528570Y-25078152D01*
X21528570Y-25078152D02*
X21480951Y-24887676D01*
X21480951Y-24887676D02*
X21385713Y-24792438D01*
X21385713Y-24792438D02*
X21290475Y-24744819D01*
X20004761Y-25078152D02*
X20004761Y-25744819D01*
X20433332Y-25078152D02*
X20433332Y-25601961D01*
X20433332Y-25601961D02*
X20385713Y-25697200D01*
X20385713Y-25697200D02*
X20290475Y-25744819D01*
X20290475Y-25744819D02*
X20147618Y-25744819D01*
X20147618Y-25744819D02*
X20052380Y-25697200D01*
X20052380Y-25697200D02*
X20004761Y-25649580D01*
X19671427Y-25078152D02*
X19290475Y-25078152D01*
X19528570Y-24744819D02*
X19528570Y-25601961D01*
X19528570Y-25601961D02*
X19480951Y-25697200D01*
X19480951Y-25697200D02*
X19385713Y-25744819D01*
X19385713Y-25744819D02*
X19290475Y-25744819D01*
X27392857Y-28542438D02*
X27488095Y-28494819D01*
X27488095Y-28494819D02*
X27630952Y-28494819D01*
X27630952Y-28494819D02*
X27773809Y-28542438D01*
X27773809Y-28542438D02*
X27869047Y-28637676D01*
X27869047Y-28637676D02*
X27916666Y-28732914D01*
X27916666Y-28732914D02*
X27964285Y-28923390D01*
X27964285Y-28923390D02*
X27964285Y-29066247D01*
X27964285Y-29066247D02*
X27916666Y-29256723D01*
X27916666Y-29256723D02*
X27869047Y-29351961D01*
X27869047Y-29351961D02*
X27773809Y-29447200D01*
X27773809Y-29447200D02*
X27630952Y-29494819D01*
X27630952Y-29494819D02*
X27535714Y-29494819D01*
X27535714Y-29494819D02*
X27392857Y-29447200D01*
X27392857Y-29447200D02*
X27345238Y-29399580D01*
X27345238Y-29399580D02*
X27345238Y-29066247D01*
X27345238Y-29066247D02*
X27535714Y-29066247D01*
X26916666Y-28828152D02*
X26916666Y-29494819D01*
X26916666Y-28923390D02*
X26869047Y-28875771D01*
X26869047Y-28875771D02*
X26773809Y-28828152D01*
X26773809Y-28828152D02*
X26630952Y-28828152D01*
X26630952Y-28828152D02*
X26535714Y-28875771D01*
X26535714Y-28875771D02*
X26488095Y-28971009D01*
X26488095Y-28971009D02*
X26488095Y-29494819D01*
X25583333Y-29494819D02*
X25583333Y-28494819D01*
X25583333Y-29447200D02*
X25678571Y-29494819D01*
X25678571Y-29494819D02*
X25869047Y-29494819D01*
X25869047Y-29494819D02*
X25964285Y-29447200D01*
X25964285Y-29447200D02*
X26011904Y-29399580D01*
X26011904Y-29399580D02*
X26059523Y-29304342D01*
X26059523Y-29304342D02*
X26059523Y-29018628D01*
X26059523Y-29018628D02*
X26011904Y-28923390D01*
X26011904Y-28923390D02*
X25964285Y-28875771D01*
X25964285Y-28875771D02*
X25869047Y-28828152D01*
X25869047Y-28828152D02*
X25678571Y-28828152D01*
X25678571Y-28828152D02*
X25583333Y-28875771D01*
X24284523Y-29349580D02*
X24332142Y-29397200D01*
X24332142Y-29397200D02*
X24474999Y-29444819D01*
X24474999Y-29444819D02*
X24570237Y-29444819D01*
X24570237Y-29444819D02*
X24713094Y-29397200D01*
X24713094Y-29397200D02*
X24808332Y-29301961D01*
X24808332Y-29301961D02*
X24855951Y-29206723D01*
X24855951Y-29206723D02*
X24903570Y-29016247D01*
X24903570Y-29016247D02*
X24903570Y-28873390D01*
X24903570Y-28873390D02*
X24855951Y-28682914D01*
X24855951Y-28682914D02*
X24808332Y-28587676D01*
X24808332Y-28587676D02*
X24713094Y-28492438D01*
X24713094Y-28492438D02*
X24570237Y-28444819D01*
X24570237Y-28444819D02*
X24474999Y-28444819D01*
X24474999Y-28444819D02*
X24332142Y-28492438D01*
X24332142Y-28492438D02*
X24284523Y-28540057D01*
X23713094Y-29444819D02*
X23808332Y-29397200D01*
X23808332Y-29397200D02*
X23855951Y-29349580D01*
X23855951Y-29349580D02*
X23903570Y-29254342D01*
X23903570Y-29254342D02*
X23903570Y-28968628D01*
X23903570Y-28968628D02*
X23855951Y-28873390D01*
X23855951Y-28873390D02*
X23808332Y-28825771D01*
X23808332Y-28825771D02*
X23713094Y-28778152D01*
X23713094Y-28778152D02*
X23570237Y-28778152D01*
X23570237Y-28778152D02*
X23474999Y-28825771D01*
X23474999Y-28825771D02*
X23427380Y-28873390D01*
X23427380Y-28873390D02*
X23379761Y-28968628D01*
X23379761Y-28968628D02*
X23379761Y-29254342D01*
X23379761Y-29254342D02*
X23427380Y-29349580D01*
X23427380Y-29349580D02*
X23474999Y-29397200D01*
X23474999Y-29397200D02*
X23570237Y-29444819D01*
X23570237Y-29444819D02*
X23713094Y-29444819D01*
X22951189Y-29444819D02*
X22951189Y-28778152D01*
X22951189Y-28873390D02*
X22903570Y-28825771D01*
X22903570Y-28825771D02*
X22808332Y-28778152D01*
X22808332Y-28778152D02*
X22665475Y-28778152D01*
X22665475Y-28778152D02*
X22570237Y-28825771D01*
X22570237Y-28825771D02*
X22522618Y-28921009D01*
X22522618Y-28921009D02*
X22522618Y-29444819D01*
X22522618Y-28921009D02*
X22474999Y-28825771D01*
X22474999Y-28825771D02*
X22379761Y-28778152D01*
X22379761Y-28778152D02*
X22236904Y-28778152D01*
X22236904Y-28778152D02*
X22141665Y-28825771D01*
X22141665Y-28825771D02*
X22094046Y-28921009D01*
X22094046Y-28921009D02*
X22094046Y-29444819D01*
%LPC*%
D11*
X26000000Y-31375000D03*
D12*
X23460000Y-31375000D03*
X20920000Y-31375000D03*
%LPD*%
M02*
