G04 #@! TF.GenerationSoftware,KiCad,Pcbnew,8.0.4*
G04 #@! TF.CreationDate,2024-08-04T10:49:20-05:00*
G04 #@! TF.ProjectId,DRV5055A4_Test_Board_V0.1,44525635-3035-4354-9134-5f546573745f,rev?*
G04 #@! TF.SameCoordinates,Original*
G04 #@! TF.FileFunction,Copper,L2,Bot*
G04 #@! TF.FilePolarity,Positive*
%FSLAX46Y46*%
G04 Gerber Fmt 4.6, Leading zero omitted, Abs format (unit mm)*
G04 Created by KiCad (PCBNEW 8.0.4) date 2024-08-04 10:49:20*
%MOMM*%
%LPD*%
G01*
G04 APERTURE LIST*
G04 #@! TA.AperFunction,ComponentPad*
%ADD10R,1.700000X1.700000*%
G04 #@! TD*
G04 #@! TA.AperFunction,ComponentPad*
%ADD11O,1.700000X1.700000*%
G04 #@! TD*
G04 APERTURE END LIST*
D10*
X26000000Y-31375000D03*
D11*
X23460000Y-31375000D03*
X20920000Y-31375000D03*
G04 #@! TA.AperFunction,Conductor*
G36*
X25681875Y-19395185D02*
G01*
X25708540Y-19418288D01*
X27964845Y-22021716D01*
X27969205Y-22026746D01*
X27998236Y-22090299D01*
X27999500Y-22107957D01*
X27999500Y-25104734D01*
X27979815Y-25171773D01*
X27927011Y-25217528D01*
X27910437Y-25223710D01*
X27886700Y-25230680D01*
X27886697Y-25230681D01*
X27658938Y-25334695D01*
X27658920Y-25334705D01*
X27448291Y-25470068D01*
X27448285Y-25470072D01*
X27259047Y-25634047D01*
X27095072Y-25823285D01*
X27095068Y-25823291D01*
X26959705Y-26033920D01*
X26959695Y-26033938D01*
X26855678Y-26261702D01*
X26855676Y-26261708D01*
X26785136Y-26501951D01*
X26785135Y-26501955D01*
X26749500Y-26749803D01*
X26749500Y-27000196D01*
X26785135Y-27248044D01*
X26785136Y-27248048D01*
X26855676Y-27488291D01*
X26855678Y-27488297D01*
X26959695Y-27716061D01*
X26959705Y-27716079D01*
X27095068Y-27926708D01*
X27095072Y-27926714D01*
X27259047Y-28115952D01*
X27448285Y-28279927D01*
X27448291Y-28279931D01*
X27658920Y-28415294D01*
X27658928Y-28415298D01*
X27658932Y-28415301D01*
X27658935Y-28415302D01*
X27658938Y-28415304D01*
X27886693Y-28519317D01*
X27886700Y-28519320D01*
X27910434Y-28526288D01*
X27969211Y-28564062D01*
X27998238Y-28627617D01*
X27999500Y-28645266D01*
X27999500Y-31685916D01*
X27979815Y-31752955D01*
X27978674Y-31754699D01*
X27576060Y-32358620D01*
X27522495Y-32403481D01*
X27453179Y-32412261D01*
X27390120Y-32382172D01*
X27353339Y-32322768D01*
X27349597Y-32276575D01*
X27349999Y-32272829D01*
X27350000Y-32272827D01*
X27350000Y-31625000D01*
X26433012Y-31625000D01*
X26465925Y-31567993D01*
X26500000Y-31440826D01*
X26500000Y-31309174D01*
X26465925Y-31182007D01*
X26433012Y-31125000D01*
X27350000Y-31125000D01*
X27350000Y-30477172D01*
X27349999Y-30477155D01*
X27343598Y-30417627D01*
X27343596Y-30417620D01*
X27293354Y-30282913D01*
X27293350Y-30282906D01*
X27207190Y-30167812D01*
X27207187Y-30167809D01*
X27092093Y-30081649D01*
X27092086Y-30081645D01*
X26957379Y-30031403D01*
X26957372Y-30031401D01*
X26897844Y-30025000D01*
X26250000Y-30025000D01*
X26250000Y-30941988D01*
X26192993Y-30909075D01*
X26065826Y-30875000D01*
X25934174Y-30875000D01*
X25807007Y-30909075D01*
X25750000Y-30941988D01*
X25750000Y-30025000D01*
X25102155Y-30025000D01*
X25042627Y-30031401D01*
X25042620Y-30031403D01*
X24907913Y-30081645D01*
X24907906Y-30081649D01*
X24792812Y-30167809D01*
X24792809Y-30167812D01*
X24706649Y-30282906D01*
X24706645Y-30282913D01*
X24657578Y-30414470D01*
X24615707Y-30470404D01*
X24550242Y-30494821D01*
X24481969Y-30479969D01*
X24453715Y-30458819D01*
X24409366Y-30414470D01*
X24331401Y-30336505D01*
X24331397Y-30336502D01*
X24331396Y-30336501D01*
X24137834Y-30200967D01*
X24137830Y-30200965D01*
X24066727Y-30167809D01*
X23923663Y-30101097D01*
X23923659Y-30101096D01*
X23923655Y-30101094D01*
X23695413Y-30039938D01*
X23695403Y-30039936D01*
X23460001Y-30019341D01*
X23459999Y-30019341D01*
X23224596Y-30039936D01*
X23224586Y-30039938D01*
X22996344Y-30101094D01*
X22996335Y-30101098D01*
X22782171Y-30200964D01*
X22782169Y-30200965D01*
X22588597Y-30336505D01*
X22421505Y-30503597D01*
X22291575Y-30689158D01*
X22236998Y-30732783D01*
X22167500Y-30739977D01*
X22105145Y-30708454D01*
X22088425Y-30689158D01*
X21958494Y-30503597D01*
X21791402Y-30336506D01*
X21791395Y-30336501D01*
X21597834Y-30200967D01*
X21597830Y-30200965D01*
X21526727Y-30167809D01*
X21383663Y-30101097D01*
X21383659Y-30101096D01*
X21383655Y-30101094D01*
X21155413Y-30039938D01*
X21155403Y-30039936D01*
X20920001Y-30019341D01*
X20919999Y-30019341D01*
X20684596Y-30039936D01*
X20684586Y-30039938D01*
X20456344Y-30101094D01*
X20456335Y-30101098D01*
X20242171Y-30200964D01*
X20242169Y-30200965D01*
X20048597Y-30336505D01*
X19881505Y-30503597D01*
X19745965Y-30697169D01*
X19745964Y-30697171D01*
X19646098Y-30911335D01*
X19646094Y-30911344D01*
X19584938Y-31139586D01*
X19584936Y-31139596D01*
X19564341Y-31374999D01*
X19564341Y-31375000D01*
X19584936Y-31610403D01*
X19584938Y-31610413D01*
X19646094Y-31838655D01*
X19646096Y-31838659D01*
X19646097Y-31838663D01*
X19701123Y-31956666D01*
X19745965Y-32052830D01*
X19745967Y-32052834D01*
X19806452Y-32139215D01*
X19881505Y-32246401D01*
X20048599Y-32413495D01*
X20125138Y-32467088D01*
X20242165Y-32549032D01*
X20242167Y-32549033D01*
X20242170Y-32549035D01*
X20433209Y-32638118D01*
X20485648Y-32684290D01*
X20504800Y-32751484D01*
X20484584Y-32818365D01*
X20431419Y-32863700D01*
X20380804Y-32874500D01*
X19834223Y-32874500D01*
X19767184Y-32854815D01*
X19731049Y-32819283D01*
X19021326Y-31754699D01*
X19000518Y-31688000D01*
X19000500Y-31685916D01*
X19000500Y-28645266D01*
X19020185Y-28578227D01*
X19072989Y-28532472D01*
X19089561Y-28526289D01*
X19113300Y-28519320D01*
X19341068Y-28415301D01*
X19551715Y-28279927D01*
X19740952Y-28115952D01*
X19904927Y-27926715D01*
X20040301Y-27716068D01*
X20144320Y-27488300D01*
X20146359Y-27481358D01*
X20177143Y-27376513D01*
X20214864Y-27248046D01*
X20250500Y-27000198D01*
X20250500Y-26749802D01*
X20214864Y-26501954D01*
X20177143Y-26373487D01*
X20144323Y-26261708D01*
X20144321Y-26261702D01*
X20040304Y-26033938D01*
X20040294Y-26033920D01*
X19904931Y-25823291D01*
X19904927Y-25823285D01*
X19740952Y-25634047D01*
X19551714Y-25470072D01*
X19551708Y-25470068D01*
X19341079Y-25334705D01*
X19341061Y-25334695D01*
X19113302Y-25230681D01*
X19113300Y-25230680D01*
X19089564Y-25223710D01*
X19030787Y-25185936D01*
X19001762Y-25122380D01*
X19000500Y-25104734D01*
X19000500Y-22101099D01*
X19020185Y-22034060D01*
X19029236Y-22021722D01*
X21197241Y-19420116D01*
X21255280Y-19381218D01*
X21292500Y-19375500D01*
X25614836Y-19375500D01*
X25681875Y-19395185D01*
G37*
G04 #@! TD.AperFunction*
M02*
