G04 #@! TF.GenerationSoftware,KiCad,Pcbnew,8.0.4*
G04 #@! TF.CreationDate,2024-08-03T18:02:04-05:00*
G04 #@! TF.ProjectId,DRV5055A4_Test_Board_V0,44525635-3035-4354-9134-5f546573745f,rev?*
G04 #@! TF.SameCoordinates,Original*
G04 #@! TF.FileFunction,Copper,L1,Top*
G04 #@! TF.FilePolarity,Positive*
%FSLAX46Y46*%
G04 Gerber Fmt 4.6, Leading zero omitted, Abs format (unit mm)*
G04 Created by KiCad (PCBNEW 8.0.4) date 2024-08-03 18:02:04*
%MOMM*%
%LPD*%
G01*
G04 APERTURE LIST*
G04 Aperture macros list*
%AMRoundRect*
0 Rectangle with rounded corners*
0 $1 Rounding radius*
0 $2 $3 $4 $5 $6 $7 $8 $9 X,Y pos of 4 corners*
0 Add a 4 corners polygon primitive as box body*
4,1,4,$2,$3,$4,$5,$6,$7,$8,$9,$2,$3,0*
0 Add four circle primitives for the rounded corners*
1,1,$1+$1,$2,$3*
1,1,$1+$1,$4,$5*
1,1,$1+$1,$6,$7*
1,1,$1+$1,$8,$9*
0 Add four rect primitives between the rounded corners*
20,1,$1+$1,$2,$3,$4,$5,0*
20,1,$1+$1,$4,$5,$6,$7,0*
20,1,$1+$1,$6,$7,$8,$9,0*
20,1,$1+$1,$8,$9,$2,$3,0*%
%AMFreePoly0*
4,1,19,0.500000,-0.750000,0.000000,-0.750000,0.000000,-0.744911,-0.071157,-0.744911,-0.207708,-0.704816,-0.327430,-0.627875,-0.420627,-0.520320,-0.479746,-0.390866,-0.500000,-0.250000,-0.500000,0.250000,-0.479746,0.390866,-0.420627,0.520320,-0.327430,0.627875,-0.207708,0.704816,-0.071157,0.744911,0.000000,0.744911,0.000000,0.750000,0.500000,0.750000,0.500000,-0.750000,0.500000,-0.750000,
$1*%
%AMFreePoly1*
4,1,19,0.000000,0.744911,0.071157,0.744911,0.207708,0.704816,0.327430,0.627875,0.420627,0.520320,0.479746,0.390866,0.500000,0.250000,0.500000,-0.250000,0.479746,-0.390866,0.420627,-0.520320,0.327430,-0.627875,0.207708,-0.704816,0.071157,-0.744911,0.000000,-0.744911,0.000000,-0.750000,-0.500000,-0.750000,-0.500000,0.750000,0.000000,0.750000,0.000000,0.744911,0.000000,0.744911,
$1*%
G04 Aperture macros list end*
G04 #@! TA.AperFunction,SMDPad,CuDef*
%ADD10RoundRect,0.237500X-0.237500X0.250000X-0.237500X-0.250000X0.237500X-0.250000X0.237500X0.250000X0*%
G04 #@! TD*
G04 #@! TA.AperFunction,ComponentPad*
%ADD11R,1.700000X1.700000*%
G04 #@! TD*
G04 #@! TA.AperFunction,ComponentPad*
%ADD12O,1.700000X1.700000*%
G04 #@! TD*
G04 #@! TA.AperFunction,SMDPad,CuDef*
%ADD13RoundRect,0.237500X0.237500X-0.300000X0.237500X0.300000X-0.237500X0.300000X-0.237500X-0.300000X0*%
G04 #@! TD*
G04 #@! TA.AperFunction,SMDPad,CuDef*
%ADD14RoundRect,0.237500X-0.237500X0.300000X-0.237500X-0.300000X0.237500X-0.300000X0.237500X0.300000X0*%
G04 #@! TD*
G04 #@! TA.AperFunction,SMDPad,CuDef*
%ADD15FreePoly0,0.000000*%
G04 #@! TD*
G04 #@! TA.AperFunction,SMDPad,CuDef*
%ADD16FreePoly1,0.000000*%
G04 #@! TD*
G04 #@! TA.AperFunction,SMDPad,CuDef*
%ADD17R,0.599999X1.000000*%
G04 #@! TD*
G04 #@! TA.AperFunction,ComponentPad*
%ADD18C,1.000000*%
G04 #@! TD*
G04 #@! TA.AperFunction,Conductor*
%ADD19C,0.400000*%
G04 #@! TD*
G04 APERTURE END LIST*
D10*
X137500000Y-91162500D03*
X137500000Y-89337500D03*
D11*
X141025000Y-94500000D03*
D12*
X138485000Y-94500000D03*
X135945000Y-94500000D03*
D13*
X136500000Y-84862500D03*
X136500000Y-83137500D03*
D14*
X139500000Y-89387500D03*
X139500000Y-91112500D03*
D15*
X138000000Y-86900000D03*
D16*
X139300000Y-86900000D03*
D17*
X138049999Y-84900000D03*
X139949998Y-84900000D03*
X139000000Y-82500000D03*
D18*
X142250000Y-85000000D03*
X142250000Y-89500000D03*
X142250000Y-87250000D03*
X142250000Y-91750000D03*
X134750000Y-85000000D03*
X134750000Y-87250000D03*
X134750000Y-91750000D03*
X134750000Y-89500000D03*
D19*
X140637497Y-89387500D02*
X140649997Y-89400000D01*
X139699999Y-82500000D02*
X140649997Y-83449998D01*
X141025000Y-92925000D02*
X141025000Y-94500000D01*
X139000000Y-82500000D02*
X139699999Y-82500000D01*
X139500000Y-89387500D02*
X140637497Y-89387500D01*
X138362500Y-83137500D02*
X139000000Y-82500000D01*
X140649997Y-89400000D02*
X140649997Y-92549997D01*
X140649997Y-92549997D02*
X141025000Y-92925000D01*
X140649997Y-83449998D02*
X140649997Y-89400000D01*
X136500000Y-83137500D02*
X138362500Y-83137500D01*
X138485000Y-91177500D02*
X138485000Y-91700000D01*
X138500000Y-91162500D02*
X139450000Y-91162500D01*
X138500000Y-91162500D02*
X138485000Y-91177500D01*
X139300000Y-88141858D02*
X138485000Y-88956858D01*
X139300000Y-86900000D02*
X139300000Y-88141858D01*
X138485000Y-88956858D02*
X138485000Y-91700000D01*
X139450000Y-91162500D02*
X139500000Y-91112500D01*
X138485000Y-91700000D02*
X138485000Y-94500000D01*
X137500000Y-91162500D02*
X138500000Y-91162500D01*
X135945000Y-93055000D02*
X135945000Y-94500000D01*
X136537500Y-84900000D02*
X136500000Y-84862500D01*
X136537500Y-92462500D02*
X135945000Y-93055000D01*
X138049999Y-84900000D02*
X136537500Y-84900000D01*
X136537500Y-84900000D02*
X136537500Y-92462500D01*
X137500000Y-89337500D02*
X137500000Y-87400000D01*
X137500000Y-87400000D02*
X138000000Y-86900000D01*
X139949998Y-84900000D02*
X139477241Y-84900000D01*
X138000000Y-86377241D02*
X138000000Y-86900000D01*
X139477241Y-84900000D02*
X138000000Y-86377241D01*
M02*
