G04 #@! TF.GenerationSoftware,KiCad,Pcbnew,8.0.4*
G04 #@! TF.CreationDate,2024-08-03T18:02:04-05:00*
G04 #@! TF.ProjectId,DRV5055A4_Test_Board_V0,44525635-3035-4354-9134-5f546573745f,rev?*
G04 #@! TF.SameCoordinates,Original*
G04 #@! TF.FileFunction,Legend,Bot*
G04 #@! TF.FilePolarity,Positive*
%FSLAX46Y46*%
G04 Gerber Fmt 4.6, Leading zero omitted, Abs format (unit mm)*
G04 Created by KiCad (PCBNEW 8.0.4) date 2024-08-03 18:02:04*
%MOMM*%
%LPD*%
G01*
G04 APERTURE LIST*
%ADD10C,0.150000*%
%ADD11C,0.000000*%
%ADD12R,1.700000X1.700000*%
%ADD13O,1.700000X1.700000*%
%ADD14C,1.000000*%
G04 APERTURE END LIST*
D10*
X139185714Y-93274580D02*
X139233333Y-93322200D01*
X139233333Y-93322200D02*
X139376190Y-93369819D01*
X139376190Y-93369819D02*
X139471428Y-93369819D01*
X139471428Y-93369819D02*
X139614285Y-93322200D01*
X139614285Y-93322200D02*
X139709523Y-93226961D01*
X139709523Y-93226961D02*
X139757142Y-93131723D01*
X139757142Y-93131723D02*
X139804761Y-92941247D01*
X139804761Y-92941247D02*
X139804761Y-92798390D01*
X139804761Y-92798390D02*
X139757142Y-92607914D01*
X139757142Y-92607914D02*
X139709523Y-92512676D01*
X139709523Y-92512676D02*
X139614285Y-92417438D01*
X139614285Y-92417438D02*
X139471428Y-92369819D01*
X139471428Y-92369819D02*
X139376190Y-92369819D01*
X139376190Y-92369819D02*
X139233333Y-92417438D01*
X139233333Y-92417438D02*
X139185714Y-92465057D01*
X138566666Y-92369819D02*
X138376190Y-92369819D01*
X138376190Y-92369819D02*
X138280952Y-92417438D01*
X138280952Y-92417438D02*
X138185714Y-92512676D01*
X138185714Y-92512676D02*
X138138095Y-92703152D01*
X138138095Y-92703152D02*
X138138095Y-93036485D01*
X138138095Y-93036485D02*
X138185714Y-93226961D01*
X138185714Y-93226961D02*
X138280952Y-93322200D01*
X138280952Y-93322200D02*
X138376190Y-93369819D01*
X138376190Y-93369819D02*
X138566666Y-93369819D01*
X138566666Y-93369819D02*
X138661904Y-93322200D01*
X138661904Y-93322200D02*
X138757142Y-93226961D01*
X138757142Y-93226961D02*
X138804761Y-93036485D01*
X138804761Y-93036485D02*
X138804761Y-92703152D01*
X138804761Y-92703152D02*
X138757142Y-92512676D01*
X138757142Y-92512676D02*
X138661904Y-92417438D01*
X138661904Y-92417438D02*
X138566666Y-92369819D01*
X137709523Y-93369819D02*
X137709523Y-92369819D01*
X137709523Y-92369819D02*
X137376190Y-93084104D01*
X137376190Y-93084104D02*
X137042857Y-92369819D01*
X137042857Y-92369819D02*
X137042857Y-93369819D01*
X142576190Y-90119819D02*
X142480952Y-90119819D01*
X142480952Y-90119819D02*
X142385714Y-90167438D01*
X142385714Y-90167438D02*
X142338095Y-90215057D01*
X142338095Y-90215057D02*
X142290476Y-90310295D01*
X142290476Y-90310295D02*
X142242857Y-90500771D01*
X142242857Y-90500771D02*
X142242857Y-90738866D01*
X142242857Y-90738866D02*
X142290476Y-90929342D01*
X142290476Y-90929342D02*
X142338095Y-91024580D01*
X142338095Y-91024580D02*
X142385714Y-91072200D01*
X142385714Y-91072200D02*
X142480952Y-91119819D01*
X142480952Y-91119819D02*
X142576190Y-91119819D01*
X142576190Y-91119819D02*
X142671428Y-91072200D01*
X142671428Y-91072200D02*
X142719047Y-91024580D01*
X142719047Y-91024580D02*
X142766666Y-90929342D01*
X142766666Y-90929342D02*
X142814285Y-90738866D01*
X142814285Y-90738866D02*
X142814285Y-90500771D01*
X142814285Y-90500771D02*
X142766666Y-90310295D01*
X142766666Y-90310295D02*
X142719047Y-90215057D01*
X142719047Y-90215057D02*
X142671428Y-90167438D01*
X142671428Y-90167438D02*
X142576190Y-90119819D01*
X141909523Y-90453152D02*
X141671428Y-91119819D01*
X141671428Y-91119819D02*
X141433333Y-90453152D01*
X141052380Y-90738866D02*
X140290476Y-90738866D01*
X139957142Y-90119819D02*
X139623809Y-91119819D01*
X139623809Y-91119819D02*
X139290476Y-90119819D01*
X138528571Y-91072200D02*
X138623809Y-91119819D01*
X138623809Y-91119819D02*
X138814285Y-91119819D01*
X138814285Y-91119819D02*
X138909523Y-91072200D01*
X138909523Y-91072200D02*
X138957142Y-91024580D01*
X138957142Y-91024580D02*
X139004761Y-90929342D01*
X139004761Y-90929342D02*
X139004761Y-90643628D01*
X139004761Y-90643628D02*
X138957142Y-90548390D01*
X138957142Y-90548390D02*
X138909523Y-90500771D01*
X138909523Y-90500771D02*
X138814285Y-90453152D01*
X138814285Y-90453152D02*
X138623809Y-90453152D01*
X138623809Y-90453152D02*
X138528571Y-90500771D01*
X137671428Y-91072200D02*
X137766666Y-91119819D01*
X137766666Y-91119819D02*
X137957142Y-91119819D01*
X137957142Y-91119819D02*
X138052380Y-91072200D01*
X138052380Y-91072200D02*
X138099999Y-91024580D01*
X138099999Y-91024580D02*
X138147618Y-90929342D01*
X138147618Y-90929342D02*
X138147618Y-90643628D01*
X138147618Y-90643628D02*
X138099999Y-90548390D01*
X138099999Y-90548390D02*
X138052380Y-90500771D01*
X138052380Y-90500771D02*
X137957142Y-90453152D01*
X137957142Y-90453152D02*
X137766666Y-90453152D01*
X137766666Y-90453152D02*
X137671428Y-90500771D01*
X136290475Y-90119819D02*
X136099999Y-90119819D01*
X136099999Y-90119819D02*
X136004761Y-90167438D01*
X136004761Y-90167438D02*
X135909523Y-90262676D01*
X135909523Y-90262676D02*
X135861904Y-90453152D01*
X135861904Y-90453152D02*
X135861904Y-90786485D01*
X135861904Y-90786485D02*
X135909523Y-90976961D01*
X135909523Y-90976961D02*
X136004761Y-91072200D01*
X136004761Y-91072200D02*
X136099999Y-91119819D01*
X136099999Y-91119819D02*
X136290475Y-91119819D01*
X136290475Y-91119819D02*
X136385713Y-91072200D01*
X136385713Y-91072200D02*
X136480951Y-90976961D01*
X136480951Y-90976961D02*
X136528570Y-90786485D01*
X136528570Y-90786485D02*
X136528570Y-90453152D01*
X136528570Y-90453152D02*
X136480951Y-90262676D01*
X136480951Y-90262676D02*
X136385713Y-90167438D01*
X136385713Y-90167438D02*
X136290475Y-90119819D01*
X135004761Y-90453152D02*
X135004761Y-91119819D01*
X135433332Y-90453152D02*
X135433332Y-90976961D01*
X135433332Y-90976961D02*
X135385713Y-91072200D01*
X135385713Y-91072200D02*
X135290475Y-91119819D01*
X135290475Y-91119819D02*
X135147618Y-91119819D01*
X135147618Y-91119819D02*
X135052380Y-91072200D01*
X135052380Y-91072200D02*
X135004761Y-91024580D01*
X134671427Y-90453152D02*
X134290475Y-90453152D01*
X134528570Y-90119819D02*
X134528570Y-90976961D01*
X134528570Y-90976961D02*
X134480951Y-91072200D01*
X134480951Y-91072200D02*
X134385713Y-91119819D01*
X134385713Y-91119819D02*
X134290475Y-91119819D01*
X142071428Y-87869819D02*
X141976190Y-87869819D01*
X141976190Y-87869819D02*
X141880952Y-87917438D01*
X141880952Y-87917438D02*
X141833333Y-87965057D01*
X141833333Y-87965057D02*
X141785714Y-88060295D01*
X141785714Y-88060295D02*
X141738095Y-88250771D01*
X141738095Y-88250771D02*
X141738095Y-88488866D01*
X141738095Y-88488866D02*
X141785714Y-88679342D01*
X141785714Y-88679342D02*
X141833333Y-88774580D01*
X141833333Y-88774580D02*
X141880952Y-88822200D01*
X141880952Y-88822200D02*
X141976190Y-88869819D01*
X141976190Y-88869819D02*
X142071428Y-88869819D01*
X142071428Y-88869819D02*
X142166666Y-88822200D01*
X142166666Y-88822200D02*
X142214285Y-88774580D01*
X142214285Y-88774580D02*
X142261904Y-88679342D01*
X142261904Y-88679342D02*
X142309523Y-88488866D01*
X142309523Y-88488866D02*
X142309523Y-88250771D01*
X142309523Y-88250771D02*
X142261904Y-88060295D01*
X142261904Y-88060295D02*
X142214285Y-87965057D01*
X142214285Y-87965057D02*
X142166666Y-87917438D01*
X142166666Y-87917438D02*
X142071428Y-87869819D01*
X141404761Y-88203152D02*
X141166666Y-88869819D01*
X141166666Y-88869819D02*
X140928571Y-88203152D01*
X140547618Y-88488866D02*
X139785714Y-88488866D01*
X139404761Y-87869819D02*
X138738095Y-87869819D01*
X138738095Y-87869819D02*
X139166666Y-88869819D01*
X138452380Y-88203152D02*
X138214285Y-88869819D01*
X138214285Y-88869819D02*
X137976190Y-88203152D01*
X136976189Y-87869819D02*
X136642856Y-88869819D01*
X136642856Y-88869819D02*
X136309523Y-87869819D01*
X135547618Y-88822200D02*
X135642856Y-88869819D01*
X135642856Y-88869819D02*
X135833332Y-88869819D01*
X135833332Y-88869819D02*
X135928570Y-88822200D01*
X135928570Y-88822200D02*
X135976189Y-88774580D01*
X135976189Y-88774580D02*
X136023808Y-88679342D01*
X136023808Y-88679342D02*
X136023808Y-88393628D01*
X136023808Y-88393628D02*
X135976189Y-88298390D01*
X135976189Y-88298390D02*
X135928570Y-88250771D01*
X135928570Y-88250771D02*
X135833332Y-88203152D01*
X135833332Y-88203152D02*
X135642856Y-88203152D01*
X135642856Y-88203152D02*
X135547618Y-88250771D01*
X134690475Y-88822200D02*
X134785713Y-88869819D01*
X134785713Y-88869819D02*
X134976189Y-88869819D01*
X134976189Y-88869819D02*
X135071427Y-88822200D01*
X135071427Y-88822200D02*
X135119046Y-88774580D01*
X135119046Y-88774580D02*
X135166665Y-88679342D01*
X135166665Y-88679342D02*
X135166665Y-88393628D01*
X135166665Y-88393628D02*
X135119046Y-88298390D01*
X135119046Y-88298390D02*
X135071427Y-88250771D01*
X135071427Y-88250771D02*
X134976189Y-88203152D01*
X134976189Y-88203152D02*
X134785713Y-88203152D01*
X134785713Y-88203152D02*
X134690475Y-88250771D01*
X142019047Y-86619819D02*
X142019047Y-85619819D01*
X142019047Y-85619819D02*
X141780952Y-85619819D01*
X141780952Y-85619819D02*
X141638095Y-85667438D01*
X141638095Y-85667438D02*
X141542857Y-85762676D01*
X141542857Y-85762676D02*
X141495238Y-85857914D01*
X141495238Y-85857914D02*
X141447619Y-86048390D01*
X141447619Y-86048390D02*
X141447619Y-86191247D01*
X141447619Y-86191247D02*
X141495238Y-86381723D01*
X141495238Y-86381723D02*
X141542857Y-86476961D01*
X141542857Y-86476961D02*
X141638095Y-86572200D01*
X141638095Y-86572200D02*
X141780952Y-86619819D01*
X141780952Y-86619819D02*
X142019047Y-86619819D01*
X140638095Y-86572200D02*
X140733333Y-86619819D01*
X140733333Y-86619819D02*
X140923809Y-86619819D01*
X140923809Y-86619819D02*
X141019047Y-86572200D01*
X141019047Y-86572200D02*
X141066666Y-86476961D01*
X141066666Y-86476961D02*
X141066666Y-86096009D01*
X141066666Y-86096009D02*
X141019047Y-86000771D01*
X141019047Y-86000771D02*
X140923809Y-85953152D01*
X140923809Y-85953152D02*
X140733333Y-85953152D01*
X140733333Y-85953152D02*
X140638095Y-86000771D01*
X140638095Y-86000771D02*
X140590476Y-86096009D01*
X140590476Y-86096009D02*
X140590476Y-86191247D01*
X140590476Y-86191247D02*
X141066666Y-86286485D01*
X140257142Y-85953152D02*
X140019047Y-86619819D01*
X140019047Y-86619819D02*
X139780952Y-85953152D01*
X138304761Y-86096009D02*
X138161904Y-86143628D01*
X138161904Y-86143628D02*
X138114285Y-86191247D01*
X138114285Y-86191247D02*
X138066666Y-86286485D01*
X138066666Y-86286485D02*
X138066666Y-86429342D01*
X138066666Y-86429342D02*
X138114285Y-86524580D01*
X138114285Y-86524580D02*
X138161904Y-86572200D01*
X138161904Y-86572200D02*
X138257142Y-86619819D01*
X138257142Y-86619819D02*
X138638094Y-86619819D01*
X138638094Y-86619819D02*
X138638094Y-85619819D01*
X138638094Y-85619819D02*
X138304761Y-85619819D01*
X138304761Y-85619819D02*
X138209523Y-85667438D01*
X138209523Y-85667438D02*
X138161904Y-85715057D01*
X138161904Y-85715057D02*
X138114285Y-85810295D01*
X138114285Y-85810295D02*
X138114285Y-85905533D01*
X138114285Y-85905533D02*
X138161904Y-86000771D01*
X138161904Y-86000771D02*
X138209523Y-86048390D01*
X138209523Y-86048390D02*
X138304761Y-86096009D01*
X138304761Y-86096009D02*
X138638094Y-86096009D01*
X137495237Y-86619819D02*
X137590475Y-86572200D01*
X137590475Y-86572200D02*
X137638094Y-86524580D01*
X137638094Y-86524580D02*
X137685713Y-86429342D01*
X137685713Y-86429342D02*
X137685713Y-86143628D01*
X137685713Y-86143628D02*
X137638094Y-86048390D01*
X137638094Y-86048390D02*
X137590475Y-86000771D01*
X137590475Y-86000771D02*
X137495237Y-85953152D01*
X137495237Y-85953152D02*
X137352380Y-85953152D01*
X137352380Y-85953152D02*
X137257142Y-86000771D01*
X137257142Y-86000771D02*
X137209523Y-86048390D01*
X137209523Y-86048390D02*
X137161904Y-86143628D01*
X137161904Y-86143628D02*
X137161904Y-86429342D01*
X137161904Y-86429342D02*
X137209523Y-86524580D01*
X137209523Y-86524580D02*
X137257142Y-86572200D01*
X137257142Y-86572200D02*
X137352380Y-86619819D01*
X137352380Y-86619819D02*
X137495237Y-86619819D01*
X136304761Y-86619819D02*
X136304761Y-86096009D01*
X136304761Y-86096009D02*
X136352380Y-86000771D01*
X136352380Y-86000771D02*
X136447618Y-85953152D01*
X136447618Y-85953152D02*
X136638094Y-85953152D01*
X136638094Y-85953152D02*
X136733332Y-86000771D01*
X136304761Y-86572200D02*
X136399999Y-86619819D01*
X136399999Y-86619819D02*
X136638094Y-86619819D01*
X136638094Y-86619819D02*
X136733332Y-86572200D01*
X136733332Y-86572200D02*
X136780951Y-86476961D01*
X136780951Y-86476961D02*
X136780951Y-86381723D01*
X136780951Y-86381723D02*
X136733332Y-86286485D01*
X136733332Y-86286485D02*
X136638094Y-86238866D01*
X136638094Y-86238866D02*
X136399999Y-86238866D01*
X136399999Y-86238866D02*
X136304761Y-86191247D01*
X135828570Y-86619819D02*
X135828570Y-85953152D01*
X135828570Y-86143628D02*
X135780951Y-86048390D01*
X135780951Y-86048390D02*
X135733332Y-86000771D01*
X135733332Y-86000771D02*
X135638094Y-85953152D01*
X135638094Y-85953152D02*
X135542856Y-85953152D01*
X134780951Y-86619819D02*
X134780951Y-85619819D01*
X134780951Y-86572200D02*
X134876189Y-86619819D01*
X134876189Y-86619819D02*
X135066665Y-86619819D01*
X135066665Y-86619819D02*
X135161903Y-86572200D01*
X135161903Y-86572200D02*
X135209522Y-86524580D01*
X135209522Y-86524580D02*
X135257141Y-86429342D01*
X135257141Y-86429342D02*
X135257141Y-86143628D01*
X135257141Y-86143628D02*
X135209522Y-86048390D01*
X135209522Y-86048390D02*
X135161903Y-86000771D01*
X135161903Y-86000771D02*
X135066665Y-85953152D01*
X135066665Y-85953152D02*
X134876189Y-85953152D01*
X134876189Y-85953152D02*
X134780951Y-86000771D01*
X141695237Y-84269819D02*
X141695237Y-83269819D01*
X141695237Y-83269819D02*
X141457142Y-83269819D01*
X141457142Y-83269819D02*
X141314285Y-83317438D01*
X141314285Y-83317438D02*
X141219047Y-83412676D01*
X141219047Y-83412676D02*
X141171428Y-83507914D01*
X141171428Y-83507914D02*
X141123809Y-83698390D01*
X141123809Y-83698390D02*
X141123809Y-83841247D01*
X141123809Y-83841247D02*
X141171428Y-84031723D01*
X141171428Y-84031723D02*
X141219047Y-84126961D01*
X141219047Y-84126961D02*
X141314285Y-84222200D01*
X141314285Y-84222200D02*
X141457142Y-84269819D01*
X141457142Y-84269819D02*
X141695237Y-84269819D01*
X140123809Y-84269819D02*
X140457142Y-83793628D01*
X140695237Y-84269819D02*
X140695237Y-83269819D01*
X140695237Y-83269819D02*
X140314285Y-83269819D01*
X140314285Y-83269819D02*
X140219047Y-83317438D01*
X140219047Y-83317438D02*
X140171428Y-83365057D01*
X140171428Y-83365057D02*
X140123809Y-83460295D01*
X140123809Y-83460295D02*
X140123809Y-83603152D01*
X140123809Y-83603152D02*
X140171428Y-83698390D01*
X140171428Y-83698390D02*
X140219047Y-83746009D01*
X140219047Y-83746009D02*
X140314285Y-83793628D01*
X140314285Y-83793628D02*
X140695237Y-83793628D01*
X139838094Y-83269819D02*
X139504761Y-84269819D01*
X139504761Y-84269819D02*
X139171428Y-83269819D01*
X138361904Y-83269819D02*
X138838094Y-83269819D01*
X138838094Y-83269819D02*
X138885713Y-83746009D01*
X138885713Y-83746009D02*
X138838094Y-83698390D01*
X138838094Y-83698390D02*
X138742856Y-83650771D01*
X138742856Y-83650771D02*
X138504761Y-83650771D01*
X138504761Y-83650771D02*
X138409523Y-83698390D01*
X138409523Y-83698390D02*
X138361904Y-83746009D01*
X138361904Y-83746009D02*
X138314285Y-83841247D01*
X138314285Y-83841247D02*
X138314285Y-84079342D01*
X138314285Y-84079342D02*
X138361904Y-84174580D01*
X138361904Y-84174580D02*
X138409523Y-84222200D01*
X138409523Y-84222200D02*
X138504761Y-84269819D01*
X138504761Y-84269819D02*
X138742856Y-84269819D01*
X138742856Y-84269819D02*
X138838094Y-84222200D01*
X138838094Y-84222200D02*
X138885713Y-84174580D01*
X137409523Y-83269819D02*
X137885713Y-83269819D01*
X137885713Y-83269819D02*
X137933332Y-83746009D01*
X137933332Y-83746009D02*
X137885713Y-83698390D01*
X137885713Y-83698390D02*
X137790475Y-83650771D01*
X137790475Y-83650771D02*
X137552380Y-83650771D01*
X137552380Y-83650771D02*
X137457142Y-83698390D01*
X137457142Y-83698390D02*
X137409523Y-83746009D01*
X137409523Y-83746009D02*
X137361904Y-83841247D01*
X137361904Y-83841247D02*
X137361904Y-84079342D01*
X137361904Y-84079342D02*
X137409523Y-84174580D01*
X137409523Y-84174580D02*
X137457142Y-84222200D01*
X137457142Y-84222200D02*
X137552380Y-84269819D01*
X137552380Y-84269819D02*
X137790475Y-84269819D01*
X137790475Y-84269819D02*
X137885713Y-84222200D01*
X137885713Y-84222200D02*
X137933332Y-84174580D01*
X136742856Y-83269819D02*
X136647618Y-83269819D01*
X136647618Y-83269819D02*
X136552380Y-83317438D01*
X136552380Y-83317438D02*
X136504761Y-83365057D01*
X136504761Y-83365057D02*
X136457142Y-83460295D01*
X136457142Y-83460295D02*
X136409523Y-83650771D01*
X136409523Y-83650771D02*
X136409523Y-83888866D01*
X136409523Y-83888866D02*
X136457142Y-84079342D01*
X136457142Y-84079342D02*
X136504761Y-84174580D01*
X136504761Y-84174580D02*
X136552380Y-84222200D01*
X136552380Y-84222200D02*
X136647618Y-84269819D01*
X136647618Y-84269819D02*
X136742856Y-84269819D01*
X136742856Y-84269819D02*
X136838094Y-84222200D01*
X136838094Y-84222200D02*
X136885713Y-84174580D01*
X136885713Y-84174580D02*
X136933332Y-84079342D01*
X136933332Y-84079342D02*
X136980951Y-83888866D01*
X136980951Y-83888866D02*
X136980951Y-83650771D01*
X136980951Y-83650771D02*
X136933332Y-83460295D01*
X136933332Y-83460295D02*
X136885713Y-83365057D01*
X136885713Y-83365057D02*
X136838094Y-83317438D01*
X136838094Y-83317438D02*
X136742856Y-83269819D01*
X135504761Y-83269819D02*
X135980951Y-83269819D01*
X135980951Y-83269819D02*
X136028570Y-83746009D01*
X136028570Y-83746009D02*
X135980951Y-83698390D01*
X135980951Y-83698390D02*
X135885713Y-83650771D01*
X135885713Y-83650771D02*
X135647618Y-83650771D01*
X135647618Y-83650771D02*
X135552380Y-83698390D01*
X135552380Y-83698390D02*
X135504761Y-83746009D01*
X135504761Y-83746009D02*
X135457142Y-83841247D01*
X135457142Y-83841247D02*
X135457142Y-84079342D01*
X135457142Y-84079342D02*
X135504761Y-84174580D01*
X135504761Y-84174580D02*
X135552380Y-84222200D01*
X135552380Y-84222200D02*
X135647618Y-84269819D01*
X135647618Y-84269819D02*
X135885713Y-84269819D01*
X135885713Y-84269819D02*
X135980951Y-84222200D01*
X135980951Y-84222200D02*
X136028570Y-84174580D01*
%LPC*%
D11*
G36*
X142315263Y-91254278D02*
G01*
X142441342Y-91288060D01*
X142554381Y-91353323D01*
X142646677Y-91445619D01*
X142711940Y-91558658D01*
X142745722Y-91684737D01*
X142745722Y-91815263D01*
X142711940Y-91941342D01*
X142646677Y-92054381D01*
X142554381Y-92146677D01*
X142441342Y-92211940D01*
X142315263Y-92245722D01*
X142250000Y-92250000D01*
X134750000Y-92250000D01*
X134684737Y-92245722D01*
X134558658Y-92211940D01*
X134445619Y-92146677D01*
X134353323Y-92054381D01*
X134288060Y-91941342D01*
X134254278Y-91815263D01*
X134254278Y-91684737D01*
X134288060Y-91558658D01*
X134353323Y-91445619D01*
X134445619Y-91353323D01*
X134558658Y-91288060D01*
X134684737Y-91254278D01*
X134750000Y-91250000D01*
X142250000Y-91250000D01*
X142315263Y-91254278D01*
G37*
G36*
X142315263Y-86754278D02*
G01*
X142441342Y-86788060D01*
X142554381Y-86853323D01*
X142646677Y-86945619D01*
X142711940Y-87058658D01*
X142745722Y-87184737D01*
X142745722Y-87315263D01*
X142711940Y-87441342D01*
X142646677Y-87554381D01*
X142554381Y-87646677D01*
X142441342Y-87711940D01*
X142315263Y-87745722D01*
X142250000Y-87750000D01*
X134750000Y-87750000D01*
X134684737Y-87745722D01*
X134558658Y-87711940D01*
X134445619Y-87646677D01*
X134353323Y-87554381D01*
X134288060Y-87441342D01*
X134254278Y-87315263D01*
X134254278Y-87184737D01*
X134288060Y-87058658D01*
X134353323Y-86945619D01*
X134445619Y-86853323D01*
X134558658Y-86788060D01*
X134684737Y-86754278D01*
X134750000Y-86750000D01*
X142250000Y-86750000D01*
X142315263Y-86754278D01*
G37*
G36*
X142315263Y-84504278D02*
G01*
X142441342Y-84538060D01*
X142554381Y-84603323D01*
X142646677Y-84695619D01*
X142711940Y-84808658D01*
X142745722Y-84934737D01*
X142745722Y-85065263D01*
X142711940Y-85191342D01*
X142646677Y-85304381D01*
X142554381Y-85396677D01*
X142441342Y-85461940D01*
X142315263Y-85495722D01*
X142250000Y-85500000D01*
X134750000Y-85500000D01*
X134684737Y-85495722D01*
X134558658Y-85461940D01*
X134445619Y-85396677D01*
X134353323Y-85304381D01*
X134288060Y-85191342D01*
X134254278Y-85065263D01*
X134254278Y-84934737D01*
X134288060Y-84808658D01*
X134353323Y-84695619D01*
X134445619Y-84603323D01*
X134558658Y-84538060D01*
X134684737Y-84504278D01*
X134750000Y-84500000D01*
X142250000Y-84500000D01*
X142315263Y-84504278D01*
G37*
G36*
X142315263Y-89004278D02*
G01*
X142441342Y-89038060D01*
X142554381Y-89103323D01*
X142646677Y-89195619D01*
X142711940Y-89308658D01*
X142745722Y-89434737D01*
X142745722Y-89565263D01*
X142711940Y-89691342D01*
X142646677Y-89804381D01*
X142554381Y-89896677D01*
X142441342Y-89961940D01*
X142315263Y-89995722D01*
X142250000Y-90000000D01*
X134750000Y-90000000D01*
X134684737Y-89995722D01*
X134558658Y-89961940D01*
X134445619Y-89896677D01*
X134353323Y-89804381D01*
X134288060Y-89691342D01*
X134254278Y-89565263D01*
X134254278Y-89434737D01*
X134288060Y-89308658D01*
X134353323Y-89195619D01*
X134445619Y-89103323D01*
X134558658Y-89038060D01*
X134684737Y-89004278D01*
X134750000Y-89000000D01*
X142250000Y-89000000D01*
X142315263Y-89004278D01*
G37*
D12*
X141025000Y-94500000D03*
D13*
X138485000Y-94500000D03*
X135945000Y-94500000D03*
D14*
X142250000Y-85000000D03*
X142250000Y-89500000D03*
X142250000Y-87250000D03*
X142250000Y-91750000D03*
X134750000Y-85000000D03*
X134750000Y-87250000D03*
X134750000Y-91750000D03*
X134750000Y-89500000D03*
%LPD*%
M02*
