%TF.GenerationSoftware,KiCad,Pcbnew,8.0.4*%
%TF.CreationDate,2024-08-04T10:49:13-05:00*%
%TF.ProjectId,DRV5055A4_Test_Board_V0.1,44525635-3035-4354-9134-5f546573745f,rev?*%
%TF.SameCoordinates,Original*%
%TF.FileFunction,Drillmap*%
%TF.FilePolarity,Positive*%
%FSLAX45Y45*%
G04 Gerber Fmt 4.5, Leading zero omitted, Abs format (unit mm)*
G04 Created by KiCad (PCBNEW 8.0.4) date 2024-08-04 10:49:13*
%MOMM*%
%LPD*%
G01*
G04 APERTURE LIST*
%ADD10C,0.050000*%
%ADD11C,0.200000*%
G04 APERTURE END LIST*
D10*
X2850000Y-2812500D02*
X2850000Y-3187500D01*
X1950000Y-3337500D02*
X2750000Y-3337500D01*
X1850000Y-2187500D02*
X2100000Y-1887500D01*
X1850000Y-2562500D02*
X1850000Y-2187500D01*
X2100000Y-1887500D02*
X2590000Y-1887500D01*
X1950000Y-3337500D02*
X1850000Y-3187500D01*
X2850000Y-2187500D02*
X2850000Y-2562500D01*
X2850000Y-2812500D02*
G75*
G02*
X2850000Y-2562500I0J125000D01*
G01*
X2850000Y-3187500D02*
X2750000Y-3337500D01*
X1850000Y-2562500D02*
G75*
G02*
X1850000Y-2812500I0J-125000D01*
G01*
X2590000Y-1887500D02*
X2850000Y-2187500D01*
X1850000Y-3187500D02*
X1850000Y-2812500D01*
D11*
X2108277Y-3651484D02*
X2108277Y-3451484D01*
X2108277Y-3451484D02*
X2155896Y-3451484D01*
X2155896Y-3451484D02*
X2184467Y-3461008D01*
X2184467Y-3461008D02*
X2203515Y-3480055D01*
X2203515Y-3480055D02*
X2213039Y-3499103D01*
X2213039Y-3499103D02*
X2222563Y-3537198D01*
X2222563Y-3537198D02*
X2222563Y-3565769D01*
X2222563Y-3565769D02*
X2213039Y-3603865D01*
X2213039Y-3603865D02*
X2203515Y-3622912D01*
X2203515Y-3622912D02*
X2184467Y-3641960D01*
X2184467Y-3641960D02*
X2155896Y-3651484D01*
X2155896Y-3651484D02*
X2108277Y-3651484D01*
X2308277Y-3651484D02*
X2308277Y-3518150D01*
X2308277Y-3556246D02*
X2317801Y-3537198D01*
X2317801Y-3537198D02*
X2327324Y-3527674D01*
X2327324Y-3527674D02*
X2346372Y-3518150D01*
X2346372Y-3518150D02*
X2365420Y-3518150D01*
X2432086Y-3651484D02*
X2432086Y-3518150D01*
X2432086Y-3451484D02*
X2422563Y-3461008D01*
X2422563Y-3461008D02*
X2432086Y-3470531D01*
X2432086Y-3470531D02*
X2441610Y-3461008D01*
X2441610Y-3461008D02*
X2432086Y-3451484D01*
X2432086Y-3451484D02*
X2432086Y-3470531D01*
X2555896Y-3651484D02*
X2536848Y-3641960D01*
X2536848Y-3641960D02*
X2527324Y-3622912D01*
X2527324Y-3622912D02*
X2527324Y-3451484D01*
X2660658Y-3651484D02*
X2641610Y-3641960D01*
X2641610Y-3641960D02*
X2632086Y-3622912D01*
X2632086Y-3622912D02*
X2632086Y-3451484D01*
X2889229Y-3651484D02*
X2889229Y-3451484D01*
X2889229Y-3451484D02*
X2955896Y-3594341D01*
X2955896Y-3594341D02*
X3022562Y-3451484D01*
X3022562Y-3451484D02*
X3022562Y-3651484D01*
X3203515Y-3651484D02*
X3203515Y-3546722D01*
X3203515Y-3546722D02*
X3193991Y-3527674D01*
X3193991Y-3527674D02*
X3174943Y-3518150D01*
X3174943Y-3518150D02*
X3136848Y-3518150D01*
X3136848Y-3518150D02*
X3117801Y-3527674D01*
X3203515Y-3641960D02*
X3184467Y-3651484D01*
X3184467Y-3651484D02*
X3136848Y-3651484D01*
X3136848Y-3651484D02*
X3117801Y-3641960D01*
X3117801Y-3641960D02*
X3108277Y-3622912D01*
X3108277Y-3622912D02*
X3108277Y-3603865D01*
X3108277Y-3603865D02*
X3117801Y-3584817D01*
X3117801Y-3584817D02*
X3136848Y-3575293D01*
X3136848Y-3575293D02*
X3184467Y-3575293D01*
X3184467Y-3575293D02*
X3203515Y-3565769D01*
X3298753Y-3518150D02*
X3298753Y-3718150D01*
X3298753Y-3527674D02*
X3317801Y-3518150D01*
X3317801Y-3518150D02*
X3355896Y-3518150D01*
X3355896Y-3518150D02*
X3374943Y-3527674D01*
X3374943Y-3527674D02*
X3384467Y-3537198D01*
X3384467Y-3537198D02*
X3393991Y-3556246D01*
X3393991Y-3556246D02*
X3393991Y-3613388D01*
X3393991Y-3613388D02*
X3384467Y-3632436D01*
X3384467Y-3632436D02*
X3374943Y-3641960D01*
X3374943Y-3641960D02*
X3355896Y-3651484D01*
X3355896Y-3651484D02*
X3317801Y-3651484D01*
X3317801Y-3651484D02*
X3298753Y-3641960D01*
X3479705Y-3632436D02*
X3489229Y-3641960D01*
X3489229Y-3641960D02*
X3479705Y-3651484D01*
X3479705Y-3651484D02*
X3470182Y-3641960D01*
X3470182Y-3641960D02*
X3479705Y-3632436D01*
X3479705Y-3632436D02*
X3479705Y-3651484D01*
X3479705Y-3527674D02*
X3489229Y-3537198D01*
X3489229Y-3537198D02*
X3479705Y-3546722D01*
X3479705Y-3546722D02*
X3470182Y-3537198D01*
X3470182Y-3537198D02*
X3479705Y-3527674D01*
X3479705Y-3527674D02*
X3479705Y-3546722D01*
M02*
