G04 #@! TF.GenerationSoftware,KiCad,Pcbnew,8.0.4*
G04 #@! TF.CreationDate,2024-08-04T10:49:20-05:00*
G04 #@! TF.ProjectId,DRV5055A4_Test_Board_V0.1,44525635-3035-4354-9134-5f546573745f,rev?*
G04 #@! TF.SameCoordinates,Original*
G04 #@! TF.FileFunction,Legend,Top*
G04 #@! TF.FilePolarity,Positive*
%FSLAX46Y46*%
G04 Gerber Fmt 4.6, Leading zero omitted, Abs format (unit mm)*
G04 Created by KiCad (PCBNEW 8.0.4) date 2024-08-04 10:49:20*
%MOMM*%
%LPD*%
G01*
G04 APERTURE LIST*
G04 Aperture macros list*
%AMRoundRect*
0 Rectangle with rounded corners*
0 $1 Rounding radius*
0 $2 $3 $4 $5 $6 $7 $8 $9 X,Y pos of 4 corners*
0 Add a 4 corners polygon primitive as box body*
4,1,4,$2,$3,$4,$5,$6,$7,$8,$9,$2,$3,0*
0 Add four circle primitives for the rounded corners*
1,1,$1+$1,$2,$3*
1,1,$1+$1,$4,$5*
1,1,$1+$1,$6,$7*
1,1,$1+$1,$8,$9*
0 Add four rect primitives between the rounded corners*
20,1,$1+$1,$2,$3,$4,$5,0*
20,1,$1+$1,$4,$5,$6,$7,0*
20,1,$1+$1,$6,$7,$8,$9,0*
20,1,$1+$1,$8,$9,$2,$3,0*%
%AMFreePoly0*
4,1,19,0.000000,0.744911,0.071157,0.744911,0.207708,0.704816,0.327430,0.627875,0.420627,0.520320,0.479746,0.390866,0.500000,0.250000,0.500000,-0.250000,0.479746,-0.390866,0.420627,-0.520320,0.327430,-0.627875,0.207708,-0.704816,0.071157,-0.744911,0.000000,-0.744911,0.000000,-0.750000,-0.500000,-0.750000,-0.500000,0.750000,0.000000,0.750000,0.000000,0.744911,0.000000,0.744911,
$1*%
%AMFreePoly1*
4,1,19,0.500000,-0.750000,0.000000,-0.750000,0.000000,-0.744911,-0.071157,-0.744911,-0.207708,-0.704816,-0.327430,-0.627875,-0.420627,-0.520320,-0.479746,-0.390866,-0.500000,-0.250000,-0.500000,0.250000,-0.479746,0.390866,-0.420627,0.520320,-0.327430,0.627875,-0.207708,0.704816,-0.071157,0.744911,0.000000,0.744911,0.000000,0.750000,0.500000,0.750000,0.500000,-0.750000,0.500000,-0.750000,
$1*%
G04 Aperture macros list end*
%ADD10C,0.150000*%
%ADD11C,0.120000*%
%ADD12C,0.200000*%
%ADD13RoundRect,0.237500X-0.237500X0.250000X-0.237500X-0.250000X0.237500X-0.250000X0.237500X0.250000X0*%
%ADD14R,1.700000X1.700000*%
%ADD15O,1.700000X1.700000*%
%ADD16RoundRect,0.237500X-0.237500X0.300000X-0.237500X-0.300000X0.237500X-0.300000X0.237500X0.300000X0*%
%ADD17FreePoly0,0.000000*%
%ADD18FreePoly1,0.000000*%
%ADD19R,0.599999X1.000000*%
%ADD20RoundRect,0.225000X0.250000X-0.225000X0.250000X0.225000X-0.250000X0.225000X-0.250000X-0.225000X0*%
G04 APERTURE END LIST*
D10*
X21454819Y-28041666D02*
X20978628Y-28374999D01*
X21454819Y-28613094D02*
X20454819Y-28613094D01*
X20454819Y-28613094D02*
X20454819Y-28232142D01*
X20454819Y-28232142D02*
X20502438Y-28136904D01*
X20502438Y-28136904D02*
X20550057Y-28089285D01*
X20550057Y-28089285D02*
X20645295Y-28041666D01*
X20645295Y-28041666D02*
X20788152Y-28041666D01*
X20788152Y-28041666D02*
X20883390Y-28089285D01*
X20883390Y-28089285D02*
X20931009Y-28136904D01*
X20931009Y-28136904D02*
X20978628Y-28232142D01*
X20978628Y-28232142D02*
X20978628Y-28613094D01*
X21454819Y-27089285D02*
X21454819Y-27660713D01*
X21454819Y-27374999D02*
X20454819Y-27374999D01*
X20454819Y-27374999D02*
X20597676Y-27470237D01*
X20597676Y-27470237D02*
X20692914Y-27565475D01*
X20692914Y-27565475D02*
X20740533Y-27660713D01*
X26259580Y-27741666D02*
X26307200Y-27789285D01*
X26307200Y-27789285D02*
X26354819Y-27932142D01*
X26354819Y-27932142D02*
X26354819Y-28027380D01*
X26354819Y-28027380D02*
X26307200Y-28170237D01*
X26307200Y-28170237D02*
X26211961Y-28265475D01*
X26211961Y-28265475D02*
X26116723Y-28313094D01*
X26116723Y-28313094D02*
X25926247Y-28360713D01*
X25926247Y-28360713D02*
X25783390Y-28360713D01*
X25783390Y-28360713D02*
X25592914Y-28313094D01*
X25592914Y-28313094D02*
X25497676Y-28265475D01*
X25497676Y-28265475D02*
X25402438Y-28170237D01*
X25402438Y-28170237D02*
X25354819Y-28027380D01*
X25354819Y-28027380D02*
X25354819Y-27932142D01*
X25354819Y-27932142D02*
X25402438Y-27789285D01*
X25402438Y-27789285D02*
X25450057Y-27741666D01*
X26354819Y-26789285D02*
X26354819Y-27360713D01*
X26354819Y-27074999D02*
X25354819Y-27074999D01*
X25354819Y-27074999D02*
X25497676Y-27170237D01*
X25497676Y-27170237D02*
X25592914Y-27265475D01*
X25592914Y-27265475D02*
X25640533Y-27360713D01*
X20166666Y-24304819D02*
X20166666Y-25019104D01*
X20166666Y-25019104D02*
X20119047Y-25161961D01*
X20119047Y-25161961D02*
X20023809Y-25257200D01*
X20023809Y-25257200D02*
X19880952Y-25304819D01*
X19880952Y-25304819D02*
X19785714Y-25304819D01*
X20642857Y-25304819D02*
X20642857Y-24304819D01*
X20642857Y-24304819D02*
X21023809Y-24304819D01*
X21023809Y-24304819D02*
X21119047Y-24352438D01*
X21119047Y-24352438D02*
X21166666Y-24400057D01*
X21166666Y-24400057D02*
X21214285Y-24495295D01*
X21214285Y-24495295D02*
X21214285Y-24638152D01*
X21214285Y-24638152D02*
X21166666Y-24733390D01*
X21166666Y-24733390D02*
X21119047Y-24781009D01*
X21119047Y-24781009D02*
X21023809Y-24828628D01*
X21023809Y-24828628D02*
X20642857Y-24828628D01*
X22166666Y-25304819D02*
X21595238Y-25304819D01*
X21880952Y-25304819D02*
X21880952Y-24304819D01*
X21880952Y-24304819D02*
X21785714Y-24447676D01*
X21785714Y-24447676D02*
X21690476Y-24542914D01*
X21690476Y-24542914D02*
X21595238Y-24590533D01*
X25988095Y-21329819D02*
X25988095Y-22139342D01*
X25988095Y-22139342D02*
X26035714Y-22234580D01*
X26035714Y-22234580D02*
X26083333Y-22282200D01*
X26083333Y-22282200D02*
X26178571Y-22329819D01*
X26178571Y-22329819D02*
X26369047Y-22329819D01*
X26369047Y-22329819D02*
X26464285Y-22282200D01*
X26464285Y-22282200D02*
X26511904Y-22234580D01*
X26511904Y-22234580D02*
X26559523Y-22139342D01*
X26559523Y-22139342D02*
X26559523Y-21329819D01*
X27559523Y-22329819D02*
X26988095Y-22329819D01*
X27273809Y-22329819D02*
X27273809Y-21329819D01*
X27273809Y-21329819D02*
X27178571Y-21472676D01*
X27178571Y-21472676D02*
X27083333Y-21567914D01*
X27083333Y-21567914D02*
X26988095Y-21615533D01*
X20429580Y-21541666D02*
X20477200Y-21589285D01*
X20477200Y-21589285D02*
X20524819Y-21732142D01*
X20524819Y-21732142D02*
X20524819Y-21827380D01*
X20524819Y-21827380D02*
X20477200Y-21970237D01*
X20477200Y-21970237D02*
X20381961Y-22065475D01*
X20381961Y-22065475D02*
X20286723Y-22113094D01*
X20286723Y-22113094D02*
X20096247Y-22160713D01*
X20096247Y-22160713D02*
X19953390Y-22160713D01*
X19953390Y-22160713D02*
X19762914Y-22113094D01*
X19762914Y-22113094D02*
X19667676Y-22065475D01*
X19667676Y-22065475D02*
X19572438Y-21970237D01*
X19572438Y-21970237D02*
X19524819Y-21827380D01*
X19524819Y-21827380D02*
X19524819Y-21732142D01*
X19524819Y-21732142D02*
X19572438Y-21589285D01*
X19572438Y-21589285D02*
X19620057Y-21541666D01*
X19620057Y-21160713D02*
X19572438Y-21113094D01*
X19572438Y-21113094D02*
X19524819Y-21017856D01*
X19524819Y-21017856D02*
X19524819Y-20779761D01*
X19524819Y-20779761D02*
X19572438Y-20684523D01*
X19572438Y-20684523D02*
X19620057Y-20636904D01*
X19620057Y-20636904D02*
X19715295Y-20589285D01*
X19715295Y-20589285D02*
X19810533Y-20589285D01*
X19810533Y-20589285D02*
X19953390Y-20636904D01*
X19953390Y-20636904D02*
X20524819Y-21208332D01*
X20524819Y-21208332D02*
X20524819Y-20589285D01*
D11*
X21801500Y-25974000D02*
X21801500Y-29276000D01*
X21801500Y-29276000D02*
X23198500Y-29276000D01*
X23198500Y-25974000D02*
X21801500Y-25974000D01*
X23198500Y-29276000D02*
X23198500Y-25974000D01*
X19590000Y-30045000D02*
X19590000Y-32705000D01*
X24730000Y-30045000D02*
X19590000Y-30045000D01*
X24730000Y-30045000D02*
X24730000Y-32705000D01*
X24730000Y-32705000D02*
X19590000Y-32705000D01*
X26000000Y-30045000D02*
X27330000Y-30045000D01*
X27330000Y-30045000D02*
X27330000Y-31375000D01*
X23990000Y-27478733D02*
X23990000Y-27771267D01*
X25010000Y-27478733D02*
X25010000Y-27771267D01*
X25050000Y-25050000D02*
G75*
G02*
X24350000Y-25750000I-700000J0D01*
G01*
X24350000Y-23750000D02*
G75*
G02*
X25050000Y-24450000I0J-700000D01*
G01*
X22950000Y-25750000D02*
G75*
G02*
X22250000Y-25050000I-1J699999D01*
G01*
X22250000Y-24450000D02*
G75*
G02*
X22950000Y-23750000I699999J1D01*
G01*
X25050000Y-24450000D02*
X25050000Y-25050000D01*
X24350000Y-25750000D02*
X22950000Y-25750000D01*
X22950000Y-23750000D02*
X24350000Y-23750000D01*
X22250000Y-25050000D02*
X22250000Y-24450000D01*
D12*
X22500000Y-20874998D02*
X22500000Y-20374999D01*
X23299999Y-20374999D02*
X22500000Y-20374999D01*
X25500000Y-20374999D02*
X24699999Y-20374999D01*
X25500000Y-20874998D02*
X25500000Y-20374999D01*
D11*
X20990000Y-21515580D02*
X20990000Y-21234420D01*
X22010000Y-21515580D02*
X22010000Y-21234420D01*
%LPC*%
D13*
X22500000Y-26712500D03*
X22500000Y-28537500D03*
D14*
X26000000Y-31375000D03*
D15*
X23460000Y-31375000D03*
X20920000Y-31375000D03*
D16*
X24500000Y-26762500D03*
X24500000Y-28487500D03*
D17*
X24300000Y-24750000D03*
D18*
X23000000Y-24750000D03*
D19*
X23049999Y-22275000D03*
X24949998Y-22275000D03*
X24000000Y-19875000D03*
D20*
X21500000Y-22150000D03*
X21500000Y-20600000D03*
%LPD*%
M02*
