G04 #@! TF.GenerationSoftware,KiCad,Pcbnew,8.0.4*
G04 #@! TF.CreationDate,2024-08-03T18:02:04-05:00*
G04 #@! TF.ProjectId,DRV5055A4_Test_Board_V0,44525635-3035-4354-9134-5f546573745f,rev?*
G04 #@! TF.SameCoordinates,Original*
G04 #@! TF.FileFunction,Legend,Top*
G04 #@! TF.FilePolarity,Positive*
%FSLAX46Y46*%
G04 Gerber Fmt 4.6, Leading zero omitted, Abs format (unit mm)*
G04 Created by KiCad (PCBNEW 8.0.4) date 2024-08-03 18:02:04*
%MOMM*%
%LPD*%
G01*
G04 APERTURE LIST*
G04 Aperture macros list*
%AMRoundRect*
0 Rectangle with rounded corners*
0 $1 Rounding radius*
0 $2 $3 $4 $5 $6 $7 $8 $9 X,Y pos of 4 corners*
0 Add a 4 corners polygon primitive as box body*
4,1,4,$2,$3,$4,$5,$6,$7,$8,$9,$2,$3,0*
0 Add four circle primitives for the rounded corners*
1,1,$1+$1,$2,$3*
1,1,$1+$1,$4,$5*
1,1,$1+$1,$6,$7*
1,1,$1+$1,$8,$9*
0 Add four rect primitives between the rounded corners*
20,1,$1+$1,$2,$3,$4,$5,0*
20,1,$1+$1,$4,$5,$6,$7,0*
20,1,$1+$1,$6,$7,$8,$9,0*
20,1,$1+$1,$8,$9,$2,$3,0*%
%AMFreePoly0*
4,1,19,0.500000,-0.750000,0.000000,-0.750000,0.000000,-0.744911,-0.071157,-0.744911,-0.207708,-0.704816,-0.327430,-0.627875,-0.420627,-0.520320,-0.479746,-0.390866,-0.500000,-0.250000,-0.500000,0.250000,-0.479746,0.390866,-0.420627,0.520320,-0.327430,0.627875,-0.207708,0.704816,-0.071157,0.744911,0.000000,0.744911,0.000000,0.750000,0.500000,0.750000,0.500000,-0.750000,0.500000,-0.750000,
$1*%
%AMFreePoly1*
4,1,19,0.000000,0.744911,0.071157,0.744911,0.207708,0.704816,0.327430,0.627875,0.420627,0.520320,0.479746,0.390866,0.500000,0.250000,0.500000,-0.250000,0.479746,-0.390866,0.420627,-0.520320,0.327430,-0.627875,0.207708,-0.704816,0.071157,-0.744911,0.000000,-0.744911,0.000000,-0.750000,-0.500000,-0.750000,-0.500000,0.750000,0.000000,0.750000,0.000000,0.744911,0.000000,0.744911,
$1*%
G04 Aperture macros list end*
%ADD10C,0.150000*%
%ADD11C,0.120000*%
%ADD12C,0.200000*%
%ADD13RoundRect,0.237500X-0.237500X0.250000X-0.237500X-0.250000X0.237500X-0.250000X0.237500X0.250000X0*%
%ADD14R,1.700000X1.700000*%
%ADD15O,1.700000X1.700000*%
%ADD16RoundRect,0.237500X0.237500X-0.300000X0.237500X0.300000X-0.237500X0.300000X-0.237500X-0.300000X0*%
%ADD17RoundRect,0.237500X-0.237500X0.300000X-0.237500X-0.300000X0.237500X-0.300000X0.237500X0.300000X0*%
%ADD18FreePoly0,0.000000*%
%ADD19FreePoly1,0.000000*%
%ADD20R,0.599999X1.000000*%
%ADD21C,1.000000*%
G04 APERTURE END LIST*
D10*
X139597929Y-92064122D02*
X139502691Y-92016503D01*
X139502691Y-92016503D02*
X139359834Y-92016503D01*
X139359834Y-92016503D02*
X139216977Y-92064122D01*
X139216977Y-92064122D02*
X139121739Y-92159360D01*
X139121739Y-92159360D02*
X139074120Y-92254598D01*
X139074120Y-92254598D02*
X139026501Y-92445074D01*
X139026501Y-92445074D02*
X139026501Y-92587931D01*
X139026501Y-92587931D02*
X139074120Y-92778407D01*
X139074120Y-92778407D02*
X139121739Y-92873645D01*
X139121739Y-92873645D02*
X139216977Y-92968884D01*
X139216977Y-92968884D02*
X139359834Y-93016503D01*
X139359834Y-93016503D02*
X139455072Y-93016503D01*
X139455072Y-93016503D02*
X139597929Y-92968884D01*
X139597929Y-92968884D02*
X139645548Y-92921264D01*
X139645548Y-92921264D02*
X139645548Y-92587931D01*
X139645548Y-92587931D02*
X139455072Y-92587931D01*
X140074120Y-93016503D02*
X140074120Y-92016503D01*
X140074120Y-92016503D02*
X140645548Y-93016503D01*
X140645548Y-93016503D02*
X140645548Y-92016503D01*
X141121739Y-93016503D02*
X141121739Y-92016503D01*
X141121739Y-92016503D02*
X141359834Y-92016503D01*
X141359834Y-92016503D02*
X141502691Y-92064122D01*
X141502691Y-92064122D02*
X141597929Y-92159360D01*
X141597929Y-92159360D02*
X141645548Y-92254598D01*
X141645548Y-92254598D02*
X141693167Y-92445074D01*
X141693167Y-92445074D02*
X141693167Y-92587931D01*
X141693167Y-92587931D02*
X141645548Y-92778407D01*
X141645548Y-92778407D02*
X141597929Y-92873645D01*
X141597929Y-92873645D02*
X141502691Y-92968884D01*
X141502691Y-92968884D02*
X141359834Y-93016503D01*
X141359834Y-93016503D02*
X141121739Y-93016503D01*
X135510798Y-92036985D02*
X135844131Y-93036985D01*
X135844131Y-93036985D02*
X136177464Y-92036985D01*
X137082226Y-92941746D02*
X137034607Y-92989366D01*
X137034607Y-92989366D02*
X136891750Y-93036985D01*
X136891750Y-93036985D02*
X136796512Y-93036985D01*
X136796512Y-93036985D02*
X136653655Y-92989366D01*
X136653655Y-92989366D02*
X136558417Y-92894127D01*
X136558417Y-92894127D02*
X136510798Y-92798889D01*
X136510798Y-92798889D02*
X136463179Y-92608413D01*
X136463179Y-92608413D02*
X136463179Y-92465556D01*
X136463179Y-92465556D02*
X136510798Y-92275080D01*
X136510798Y-92275080D02*
X136558417Y-92179842D01*
X136558417Y-92179842D02*
X136653655Y-92084604D01*
X136653655Y-92084604D02*
X136796512Y-92036985D01*
X136796512Y-92036985D02*
X136891750Y-92036985D01*
X136891750Y-92036985D02*
X137034607Y-92084604D01*
X137034607Y-92084604D02*
X137082226Y-92132223D01*
X138082226Y-92941746D02*
X138034607Y-92989366D01*
X138034607Y-92989366D02*
X137891750Y-93036985D01*
X137891750Y-93036985D02*
X137796512Y-93036985D01*
X137796512Y-93036985D02*
X137653655Y-92989366D01*
X137653655Y-92989366D02*
X137558417Y-92894127D01*
X137558417Y-92894127D02*
X137510798Y-92798889D01*
X137510798Y-92798889D02*
X137463179Y-92608413D01*
X137463179Y-92608413D02*
X137463179Y-92465556D01*
X137463179Y-92465556D02*
X137510798Y-92275080D01*
X137510798Y-92275080D02*
X137558417Y-92179842D01*
X137558417Y-92179842D02*
X137653655Y-92084604D01*
X137653655Y-92084604D02*
X137796512Y-92036985D01*
X137796512Y-92036985D02*
X137891750Y-92036985D01*
X137891750Y-92036985D02*
X138034607Y-92084604D01*
X138034607Y-92084604D02*
X138082226Y-92132223D01*
X136454819Y-90666666D02*
X135978628Y-90999999D01*
X136454819Y-91238094D02*
X135454819Y-91238094D01*
X135454819Y-91238094D02*
X135454819Y-90857142D01*
X135454819Y-90857142D02*
X135502438Y-90761904D01*
X135502438Y-90761904D02*
X135550057Y-90714285D01*
X135550057Y-90714285D02*
X135645295Y-90666666D01*
X135645295Y-90666666D02*
X135788152Y-90666666D01*
X135788152Y-90666666D02*
X135883390Y-90714285D01*
X135883390Y-90714285D02*
X135931009Y-90761904D01*
X135931009Y-90761904D02*
X135978628Y-90857142D01*
X135978628Y-90857142D02*
X135978628Y-91238094D01*
X136454819Y-89714285D02*
X136454819Y-90285713D01*
X136454819Y-89999999D02*
X135454819Y-89999999D01*
X135454819Y-89999999D02*
X135597676Y-90095237D01*
X135597676Y-90095237D02*
X135692914Y-90190475D01*
X135692914Y-90190475D02*
X135740533Y-90285713D01*
X137533333Y-82509580D02*
X137485714Y-82557200D01*
X137485714Y-82557200D02*
X137342857Y-82604819D01*
X137342857Y-82604819D02*
X137247619Y-82604819D01*
X137247619Y-82604819D02*
X137104762Y-82557200D01*
X137104762Y-82557200D02*
X137009524Y-82461961D01*
X137009524Y-82461961D02*
X136961905Y-82366723D01*
X136961905Y-82366723D02*
X136914286Y-82176247D01*
X136914286Y-82176247D02*
X136914286Y-82033390D01*
X136914286Y-82033390D02*
X136961905Y-81842914D01*
X136961905Y-81842914D02*
X137009524Y-81747676D01*
X137009524Y-81747676D02*
X137104762Y-81652438D01*
X137104762Y-81652438D02*
X137247619Y-81604819D01*
X137247619Y-81604819D02*
X137342857Y-81604819D01*
X137342857Y-81604819D02*
X137485714Y-81652438D01*
X137485714Y-81652438D02*
X137533333Y-81700057D01*
X137914286Y-81700057D02*
X137961905Y-81652438D01*
X137961905Y-81652438D02*
X138057143Y-81604819D01*
X138057143Y-81604819D02*
X138295238Y-81604819D01*
X138295238Y-81604819D02*
X138390476Y-81652438D01*
X138390476Y-81652438D02*
X138438095Y-81700057D01*
X138438095Y-81700057D02*
X138485714Y-81795295D01*
X138485714Y-81795295D02*
X138485714Y-81890533D01*
X138485714Y-81890533D02*
X138438095Y-82033390D01*
X138438095Y-82033390D02*
X137866667Y-82604819D01*
X137866667Y-82604819D02*
X138485714Y-82604819D01*
X141259580Y-90366666D02*
X141307200Y-90414285D01*
X141307200Y-90414285D02*
X141354819Y-90557142D01*
X141354819Y-90557142D02*
X141354819Y-90652380D01*
X141354819Y-90652380D02*
X141307200Y-90795237D01*
X141307200Y-90795237D02*
X141211961Y-90890475D01*
X141211961Y-90890475D02*
X141116723Y-90938094D01*
X141116723Y-90938094D02*
X140926247Y-90985713D01*
X140926247Y-90985713D02*
X140783390Y-90985713D01*
X140783390Y-90985713D02*
X140592914Y-90938094D01*
X140592914Y-90938094D02*
X140497676Y-90890475D01*
X140497676Y-90890475D02*
X140402438Y-90795237D01*
X140402438Y-90795237D02*
X140354819Y-90652380D01*
X140354819Y-90652380D02*
X140354819Y-90557142D01*
X140354819Y-90557142D02*
X140402438Y-90414285D01*
X140402438Y-90414285D02*
X140450057Y-90366666D01*
X141354819Y-89414285D02*
X141354819Y-89985713D01*
X141354819Y-89699999D02*
X140354819Y-89699999D01*
X140354819Y-89699999D02*
X140497676Y-89795237D01*
X140497676Y-89795237D02*
X140592914Y-89890475D01*
X140592914Y-89890475D02*
X140640533Y-89985713D01*
X136054819Y-87733333D02*
X136769104Y-87733333D01*
X136769104Y-87733333D02*
X136911961Y-87780952D01*
X136911961Y-87780952D02*
X137007200Y-87876190D01*
X137007200Y-87876190D02*
X137054819Y-88019047D01*
X137054819Y-88019047D02*
X137054819Y-88114285D01*
X137054819Y-87257142D02*
X136054819Y-87257142D01*
X136054819Y-87257142D02*
X136054819Y-86876190D01*
X136054819Y-86876190D02*
X136102438Y-86780952D01*
X136102438Y-86780952D02*
X136150057Y-86733333D01*
X136150057Y-86733333D02*
X136245295Y-86685714D01*
X136245295Y-86685714D02*
X136388152Y-86685714D01*
X136388152Y-86685714D02*
X136483390Y-86733333D01*
X136483390Y-86733333D02*
X136531009Y-86780952D01*
X136531009Y-86780952D02*
X136578628Y-86876190D01*
X136578628Y-86876190D02*
X136578628Y-87257142D01*
X137054819Y-85733333D02*
X137054819Y-86304761D01*
X137054819Y-86019047D02*
X136054819Y-86019047D01*
X136054819Y-86019047D02*
X136197676Y-86114285D01*
X136197676Y-86114285D02*
X136292914Y-86209523D01*
X136292914Y-86209523D02*
X136340533Y-86304761D01*
X140854819Y-84311904D02*
X141664342Y-84311904D01*
X141664342Y-84311904D02*
X141759580Y-84264285D01*
X141759580Y-84264285D02*
X141807200Y-84216666D01*
X141807200Y-84216666D02*
X141854819Y-84121428D01*
X141854819Y-84121428D02*
X141854819Y-83930952D01*
X141854819Y-83930952D02*
X141807200Y-83835714D01*
X141807200Y-83835714D02*
X141759580Y-83788095D01*
X141759580Y-83788095D02*
X141664342Y-83740476D01*
X141664342Y-83740476D02*
X140854819Y-83740476D01*
X141854819Y-82740476D02*
X141854819Y-83311904D01*
X141854819Y-83026190D02*
X140854819Y-83026190D01*
X140854819Y-83026190D02*
X140997676Y-83121428D01*
X140997676Y-83121428D02*
X141092914Y-83216666D01*
X141092914Y-83216666D02*
X141140533Y-83311904D01*
D11*
X136801500Y-91901000D02*
X138198500Y-91901000D01*
X136801500Y-88599000D02*
X136801500Y-91901000D01*
X138198500Y-88599000D02*
X136801500Y-88599000D01*
X138198500Y-91901000D02*
X138198500Y-88599000D01*
X142355000Y-93170000D02*
X142355000Y-94500000D01*
X141025000Y-93170000D02*
X142355000Y-93170000D01*
X139755000Y-93170000D02*
X134615000Y-93170000D01*
X139755000Y-93170000D02*
X139755000Y-95830000D01*
X134615000Y-93170000D02*
X134615000Y-95830000D01*
X139755000Y-95830000D02*
X134615000Y-95830000D01*
X135990000Y-84146267D02*
X135990000Y-83853733D01*
X137010000Y-84146267D02*
X137010000Y-83853733D01*
X140010000Y-90103733D02*
X140010000Y-90396267D01*
X138990000Y-90103733D02*
X138990000Y-90396267D01*
X137250000Y-87200000D02*
X137250000Y-86600000D01*
X137950000Y-85900000D02*
X139350000Y-85900000D01*
X139350000Y-87900000D02*
X137950000Y-87900000D01*
X140050000Y-86600000D02*
X140050000Y-87200000D01*
X137250000Y-86600000D02*
G75*
G02*
X137950000Y-85900000I699999J1D01*
G01*
X137950000Y-87900000D02*
G75*
G02*
X137250000Y-87200000I-1J699999D01*
G01*
X139350000Y-85900000D02*
G75*
G02*
X140050000Y-86600000I0J-700000D01*
G01*
X140050000Y-87200000D02*
G75*
G02*
X139350000Y-87900000I-700000J0D01*
G01*
D12*
X137500000Y-83499998D02*
X137500000Y-82999999D01*
X140500000Y-83499998D02*
X140500000Y-82999999D01*
X138299999Y-82999999D02*
X137500000Y-82999999D01*
X140500000Y-82999999D02*
X139699999Y-82999999D01*
%LPC*%
D13*
X137500000Y-91162500D03*
X137500000Y-89337500D03*
D14*
X141025000Y-94500000D03*
D15*
X138485000Y-94500000D03*
X135945000Y-94500000D03*
D16*
X136500000Y-84862500D03*
X136500000Y-83137500D03*
D17*
X139500000Y-89387500D03*
X139500000Y-91112500D03*
D18*
X138000000Y-86900000D03*
D19*
X139300000Y-86900000D03*
D20*
X138049999Y-84900000D03*
X139949998Y-84900000D03*
X139000000Y-82500000D03*
D21*
X142250000Y-85000000D03*
X142250000Y-89500000D03*
X142250000Y-87250000D03*
X142250000Y-91750000D03*
X134750000Y-85000000D03*
X134750000Y-87250000D03*
X134750000Y-91750000D03*
X134750000Y-89500000D03*
%LPD*%
M02*
