%TF.GenerationSoftware,KiCad,Pcbnew,8.0.4*%
%TF.CreationDate,2024-08-03T18:03:16-05:00*%
%TF.ProjectId,DRV5055A4_Test_Board_V0,44525635-3035-4354-9134-5f546573745f,rev?*%
%TF.SameCoordinates,Original*%
%TF.FileFunction,Drillmap*%
%TF.FilePolarity,Positive*%
%FSLAX45Y45*%
G04 Gerber Fmt 4.5, Leading zero omitted, Abs format (unit mm)*
G04 Created by KiCad (PCBNEW 8.0.4) date 2024-08-03 18:03:16*
%MOMM*%
%LPD*%
G01*
G04 APERTURE LIST*
%ADD10C,0.100000*%
%ADD11C,0.200000*%
G04 APERTURE END LIST*
D10*
X14250000Y-9600000D02*
X14350000Y-9450000D01*
X13450000Y-9600000D02*
X14250000Y-9600000D01*
X13350000Y-9450000D02*
X13450000Y-9600000D01*
X14350000Y-8450000D02*
X14090000Y-8150000D01*
X13350000Y-8450000D02*
X13350000Y-9450000D01*
X14350000Y-9450000D02*
X14350000Y-8450000D01*
X13600000Y-8150000D02*
X13350000Y-8450000D01*
X14090000Y-8150000D02*
X13600000Y-8150000D01*
D11*
X13605777Y-9916484D02*
X13605777Y-9716484D01*
X13605777Y-9716484D02*
X13653396Y-9716484D01*
X13653396Y-9716484D02*
X13681967Y-9726008D01*
X13681967Y-9726008D02*
X13701015Y-9745055D01*
X13701015Y-9745055D02*
X13710539Y-9764103D01*
X13710539Y-9764103D02*
X13720062Y-9802198D01*
X13720062Y-9802198D02*
X13720062Y-9830770D01*
X13720062Y-9830770D02*
X13710539Y-9868865D01*
X13710539Y-9868865D02*
X13701015Y-9887912D01*
X13701015Y-9887912D02*
X13681967Y-9906960D01*
X13681967Y-9906960D02*
X13653396Y-9916484D01*
X13653396Y-9916484D02*
X13605777Y-9916484D01*
X13805777Y-9916484D02*
X13805777Y-9783150D01*
X13805777Y-9821246D02*
X13815301Y-9802198D01*
X13815301Y-9802198D02*
X13824824Y-9792674D01*
X13824824Y-9792674D02*
X13843872Y-9783150D01*
X13843872Y-9783150D02*
X13862920Y-9783150D01*
X13929586Y-9916484D02*
X13929586Y-9783150D01*
X13929586Y-9716484D02*
X13920062Y-9726008D01*
X13920062Y-9726008D02*
X13929586Y-9735531D01*
X13929586Y-9735531D02*
X13939110Y-9726008D01*
X13939110Y-9726008D02*
X13929586Y-9716484D01*
X13929586Y-9716484D02*
X13929586Y-9735531D01*
X14053396Y-9916484D02*
X14034348Y-9906960D01*
X14034348Y-9906960D02*
X14024824Y-9887912D01*
X14024824Y-9887912D02*
X14024824Y-9716484D01*
X14158158Y-9916484D02*
X14139110Y-9906960D01*
X14139110Y-9906960D02*
X14129586Y-9887912D01*
X14129586Y-9887912D02*
X14129586Y-9716484D01*
X14386729Y-9916484D02*
X14386729Y-9716484D01*
X14386729Y-9716484D02*
X14453396Y-9859341D01*
X14453396Y-9859341D02*
X14520062Y-9716484D01*
X14520062Y-9716484D02*
X14520062Y-9916484D01*
X14701015Y-9916484D02*
X14701015Y-9811722D01*
X14701015Y-9811722D02*
X14691491Y-9792674D01*
X14691491Y-9792674D02*
X14672443Y-9783150D01*
X14672443Y-9783150D02*
X14634348Y-9783150D01*
X14634348Y-9783150D02*
X14615301Y-9792674D01*
X14701015Y-9906960D02*
X14681967Y-9916484D01*
X14681967Y-9916484D02*
X14634348Y-9916484D01*
X14634348Y-9916484D02*
X14615301Y-9906960D01*
X14615301Y-9906960D02*
X14605777Y-9887912D01*
X14605777Y-9887912D02*
X14605777Y-9868865D01*
X14605777Y-9868865D02*
X14615301Y-9849817D01*
X14615301Y-9849817D02*
X14634348Y-9840293D01*
X14634348Y-9840293D02*
X14681967Y-9840293D01*
X14681967Y-9840293D02*
X14701015Y-9830770D01*
X14796253Y-9783150D02*
X14796253Y-9983150D01*
X14796253Y-9792674D02*
X14815301Y-9783150D01*
X14815301Y-9783150D02*
X14853396Y-9783150D01*
X14853396Y-9783150D02*
X14872443Y-9792674D01*
X14872443Y-9792674D02*
X14881967Y-9802198D01*
X14881967Y-9802198D02*
X14891491Y-9821246D01*
X14891491Y-9821246D02*
X14891491Y-9878389D01*
X14891491Y-9878389D02*
X14881967Y-9897436D01*
X14881967Y-9897436D02*
X14872443Y-9906960D01*
X14872443Y-9906960D02*
X14853396Y-9916484D01*
X14853396Y-9916484D02*
X14815301Y-9916484D01*
X14815301Y-9916484D02*
X14796253Y-9906960D01*
X14977205Y-9897436D02*
X14986729Y-9906960D01*
X14986729Y-9906960D02*
X14977205Y-9916484D01*
X14977205Y-9916484D02*
X14967682Y-9906960D01*
X14967682Y-9906960D02*
X14977205Y-9897436D01*
X14977205Y-9897436D02*
X14977205Y-9916484D01*
X14977205Y-9792674D02*
X14986729Y-9802198D01*
X14986729Y-9802198D02*
X14977205Y-9811722D01*
X14977205Y-9811722D02*
X14967682Y-9802198D01*
X14967682Y-9802198D02*
X14977205Y-9792674D01*
X14977205Y-9792674D02*
X14977205Y-9811722D01*
M02*
