G04 #@! TF.GenerationSoftware,KiCad,Pcbnew,8.0.4*
G04 #@! TF.CreationDate,2024-08-03T18:02:04-05:00*
G04 #@! TF.ProjectId,DRV5055A4_Test_Board_V0,44525635-3035-4354-9134-5f546573745f,rev?*
G04 #@! TF.SameCoordinates,Original*
G04 #@! TF.FileFunction,Soldermask,Bot*
G04 #@! TF.FilePolarity,Negative*
%FSLAX46Y46*%
G04 Gerber Fmt 4.6, Leading zero omitted, Abs format (unit mm)*
G04 Created by KiCad (PCBNEW 8.0.4) date 2024-08-03 18:02:04*
%MOMM*%
%LPD*%
G01*
G04 APERTURE LIST*
%ADD10C,0.000000*%
%ADD11R,1.700000X1.700000*%
%ADD12O,1.700000X1.700000*%
%ADD13C,1.000000*%
G04 APERTURE END LIST*
D10*
G36*
X142315263Y-91254278D02*
G01*
X142441342Y-91288060D01*
X142554381Y-91353323D01*
X142646677Y-91445619D01*
X142711940Y-91558658D01*
X142745722Y-91684737D01*
X142745722Y-91815263D01*
X142711940Y-91941342D01*
X142646677Y-92054381D01*
X142554381Y-92146677D01*
X142441342Y-92211940D01*
X142315263Y-92245722D01*
X142250000Y-92250000D01*
X134750000Y-92250000D01*
X134684737Y-92245722D01*
X134558658Y-92211940D01*
X134445619Y-92146677D01*
X134353323Y-92054381D01*
X134288060Y-91941342D01*
X134254278Y-91815263D01*
X134254278Y-91684737D01*
X134288060Y-91558658D01*
X134353323Y-91445619D01*
X134445619Y-91353323D01*
X134558658Y-91288060D01*
X134684737Y-91254278D01*
X134750000Y-91250000D01*
X142250000Y-91250000D01*
X142315263Y-91254278D01*
G37*
G36*
X142315263Y-86754278D02*
G01*
X142441342Y-86788060D01*
X142554381Y-86853323D01*
X142646677Y-86945619D01*
X142711940Y-87058658D01*
X142745722Y-87184737D01*
X142745722Y-87315263D01*
X142711940Y-87441342D01*
X142646677Y-87554381D01*
X142554381Y-87646677D01*
X142441342Y-87711940D01*
X142315263Y-87745722D01*
X142250000Y-87750000D01*
X134750000Y-87750000D01*
X134684737Y-87745722D01*
X134558658Y-87711940D01*
X134445619Y-87646677D01*
X134353323Y-87554381D01*
X134288060Y-87441342D01*
X134254278Y-87315263D01*
X134254278Y-87184737D01*
X134288060Y-87058658D01*
X134353323Y-86945619D01*
X134445619Y-86853323D01*
X134558658Y-86788060D01*
X134684737Y-86754278D01*
X134750000Y-86750000D01*
X142250000Y-86750000D01*
X142315263Y-86754278D01*
G37*
G36*
X142315263Y-84504278D02*
G01*
X142441342Y-84538060D01*
X142554381Y-84603323D01*
X142646677Y-84695619D01*
X142711940Y-84808658D01*
X142745722Y-84934737D01*
X142745722Y-85065263D01*
X142711940Y-85191342D01*
X142646677Y-85304381D01*
X142554381Y-85396677D01*
X142441342Y-85461940D01*
X142315263Y-85495722D01*
X142250000Y-85500000D01*
X134750000Y-85500000D01*
X134684737Y-85495722D01*
X134558658Y-85461940D01*
X134445619Y-85396677D01*
X134353323Y-85304381D01*
X134288060Y-85191342D01*
X134254278Y-85065263D01*
X134254278Y-84934737D01*
X134288060Y-84808658D01*
X134353323Y-84695619D01*
X134445619Y-84603323D01*
X134558658Y-84538060D01*
X134684737Y-84504278D01*
X134750000Y-84500000D01*
X142250000Y-84500000D01*
X142315263Y-84504278D01*
G37*
G36*
X142315263Y-89004278D02*
G01*
X142441342Y-89038060D01*
X142554381Y-89103323D01*
X142646677Y-89195619D01*
X142711940Y-89308658D01*
X142745722Y-89434737D01*
X142745722Y-89565263D01*
X142711940Y-89691342D01*
X142646677Y-89804381D01*
X142554381Y-89896677D01*
X142441342Y-89961940D01*
X142315263Y-89995722D01*
X142250000Y-90000000D01*
X134750000Y-90000000D01*
X134684737Y-89995722D01*
X134558658Y-89961940D01*
X134445619Y-89896677D01*
X134353323Y-89804381D01*
X134288060Y-89691342D01*
X134254278Y-89565263D01*
X134254278Y-89434737D01*
X134288060Y-89308658D01*
X134353323Y-89195619D01*
X134445619Y-89103323D01*
X134558658Y-89038060D01*
X134684737Y-89004278D01*
X134750000Y-89000000D01*
X142250000Y-89000000D01*
X142315263Y-89004278D01*
G37*
D11*
X141025000Y-94500000D03*
D12*
X138485000Y-94500000D03*
X135945000Y-94500000D03*
D13*
X142250000Y-85000000D03*
X142250000Y-89500000D03*
X142250000Y-87250000D03*
X142250000Y-91750000D03*
X134750000Y-85000000D03*
X134750000Y-87250000D03*
X134750000Y-91750000D03*
X134750000Y-89500000D03*
M02*
