%TF.GenerationSoftware,KiCad,Pcbnew,8.0.4*%
%TF.CreationDate,2024-08-04T10:49:13-05:00*%
%TF.ProjectId,DRV5055A4_Test_Board_V0.1,44525635-3035-4354-9134-5f546573745f,rev?*%
%TF.SameCoordinates,Original*%
%TF.FileFunction,Drillmap*%
%TF.FilePolarity,Positive*%
%FSLAX45Y45*%
G04 Gerber Fmt 4.5, Leading zero omitted, Abs format (unit mm)*
G04 Created by KiCad (PCBNEW 8.0.4) date 2024-08-04 10:49:13*
%MOMM*%
%LPD*%
G01*
G04 APERTURE LIST*
%ADD10C,0.050000*%
%ADD11C,0.200000*%
%ADD12C,0.100000*%
G04 APERTURE END LIST*
D10*
X2850000Y-2812500D02*
X2850000Y-3187500D01*
X1950000Y-3337500D02*
X2750000Y-3337500D01*
X1850000Y-2187500D02*
X2100000Y-1887500D01*
X1850000Y-2562500D02*
X1850000Y-2187500D01*
X2100000Y-1887500D02*
X2590000Y-1887500D01*
X1950000Y-3337500D02*
X1850000Y-3187500D01*
X2850000Y-2187500D02*
X2850000Y-2562500D01*
X2850000Y-2812500D02*
G75*
G02*
X2850000Y-2562500I0J125000D01*
G01*
X2850000Y-3187500D02*
X2750000Y-3337500D01*
X1850000Y-2562500D02*
G75*
G02*
X1850000Y-2812500I0J-125000D01*
G01*
X2590000Y-1887500D02*
X2850000Y-2187500D01*
X1850000Y-3187500D02*
X1850000Y-2812500D01*
D11*
D12*
X2042000Y-3087500D02*
X2142000Y-3187500D01*
X2142000Y-3087500D02*
X2042000Y-3187500D01*
X2296000Y-3087500D02*
X2396000Y-3187500D01*
X2396000Y-3087500D02*
X2296000Y-3187500D01*
X2550000Y-3087500D02*
X2650000Y-3187500D01*
X2650000Y-3087500D02*
X2550000Y-3187500D01*
D11*
X2108277Y-3651484D02*
X2108277Y-3451484D01*
X2108277Y-3451484D02*
X2155896Y-3451484D01*
X2155896Y-3451484D02*
X2184467Y-3461008D01*
X2184467Y-3461008D02*
X2203515Y-3480055D01*
X2203515Y-3480055D02*
X2213039Y-3499103D01*
X2213039Y-3499103D02*
X2222563Y-3537198D01*
X2222563Y-3537198D02*
X2222563Y-3565769D01*
X2222563Y-3565769D02*
X2213039Y-3603865D01*
X2213039Y-3603865D02*
X2203515Y-3622912D01*
X2203515Y-3622912D02*
X2184467Y-3641960D01*
X2184467Y-3641960D02*
X2155896Y-3651484D01*
X2155896Y-3651484D02*
X2108277Y-3651484D01*
X2308277Y-3651484D02*
X2308277Y-3518150D01*
X2308277Y-3556246D02*
X2317801Y-3537198D01*
X2317801Y-3537198D02*
X2327324Y-3527674D01*
X2327324Y-3527674D02*
X2346372Y-3518150D01*
X2346372Y-3518150D02*
X2365420Y-3518150D01*
X2432086Y-3651484D02*
X2432086Y-3518150D01*
X2432086Y-3451484D02*
X2422563Y-3461008D01*
X2422563Y-3461008D02*
X2432086Y-3470531D01*
X2432086Y-3470531D02*
X2441610Y-3461008D01*
X2441610Y-3461008D02*
X2432086Y-3451484D01*
X2432086Y-3451484D02*
X2432086Y-3470531D01*
X2555896Y-3651484D02*
X2536848Y-3641960D01*
X2536848Y-3641960D02*
X2527324Y-3622912D01*
X2527324Y-3622912D02*
X2527324Y-3451484D01*
X2660658Y-3651484D02*
X2641610Y-3641960D01*
X2641610Y-3641960D02*
X2632086Y-3622912D01*
X2632086Y-3622912D02*
X2632086Y-3451484D01*
X2889229Y-3651484D02*
X2889229Y-3451484D01*
X2889229Y-3451484D02*
X2955896Y-3594341D01*
X2955896Y-3594341D02*
X3022562Y-3451484D01*
X3022562Y-3451484D02*
X3022562Y-3651484D01*
X3203515Y-3651484D02*
X3203515Y-3546722D01*
X3203515Y-3546722D02*
X3193991Y-3527674D01*
X3193991Y-3527674D02*
X3174943Y-3518150D01*
X3174943Y-3518150D02*
X3136848Y-3518150D01*
X3136848Y-3518150D02*
X3117801Y-3527674D01*
X3203515Y-3641960D02*
X3184467Y-3651484D01*
X3184467Y-3651484D02*
X3136848Y-3651484D01*
X3136848Y-3651484D02*
X3117801Y-3641960D01*
X3117801Y-3641960D02*
X3108277Y-3622912D01*
X3108277Y-3622912D02*
X3108277Y-3603865D01*
X3108277Y-3603865D02*
X3117801Y-3584817D01*
X3117801Y-3584817D02*
X3136848Y-3575293D01*
X3136848Y-3575293D02*
X3184467Y-3575293D01*
X3184467Y-3575293D02*
X3203515Y-3565769D01*
X3298753Y-3518150D02*
X3298753Y-3718150D01*
X3298753Y-3527674D02*
X3317801Y-3518150D01*
X3317801Y-3518150D02*
X3355896Y-3518150D01*
X3355896Y-3518150D02*
X3374943Y-3527674D01*
X3374943Y-3527674D02*
X3384467Y-3537198D01*
X3384467Y-3537198D02*
X3393991Y-3556246D01*
X3393991Y-3556246D02*
X3393991Y-3613388D01*
X3393991Y-3613388D02*
X3384467Y-3632436D01*
X3384467Y-3632436D02*
X3374943Y-3641960D01*
X3374943Y-3641960D02*
X3355896Y-3651484D01*
X3355896Y-3651484D02*
X3317801Y-3651484D01*
X3317801Y-3651484D02*
X3298753Y-3641960D01*
X3479705Y-3632436D02*
X3489229Y-3641960D01*
X3489229Y-3641960D02*
X3479705Y-3651484D01*
X3479705Y-3651484D02*
X3470182Y-3641960D01*
X3470182Y-3641960D02*
X3479705Y-3632436D01*
X3479705Y-3632436D02*
X3479705Y-3651484D01*
X3479705Y-3527674D02*
X3489229Y-3537198D01*
X3489229Y-3537198D02*
X3479705Y-3546722D01*
X3479705Y-3546722D02*
X3470182Y-3537198D01*
X3470182Y-3537198D02*
X3479705Y-3527674D01*
X3479705Y-3527674D02*
X3479705Y-3546722D01*
D12*
X1747500Y-3930000D02*
X1847500Y-4030000D01*
X1847500Y-3930000D02*
X1747500Y-4030000D01*
D11*
X2213039Y-4071484D02*
X2098753Y-4071484D01*
X2155896Y-4071484D02*
X2155896Y-3871484D01*
X2155896Y-3871484D02*
X2136848Y-3900055D01*
X2136848Y-3900055D02*
X2117801Y-3919103D01*
X2117801Y-3919103D02*
X2098753Y-3928627D01*
X2298753Y-4052436D02*
X2308277Y-4061960D01*
X2308277Y-4061960D02*
X2298753Y-4071484D01*
X2298753Y-4071484D02*
X2289229Y-4061960D01*
X2289229Y-4061960D02*
X2298753Y-4052436D01*
X2298753Y-4052436D02*
X2298753Y-4071484D01*
X2432086Y-3871484D02*
X2451134Y-3871484D01*
X2451134Y-3871484D02*
X2470182Y-3881008D01*
X2470182Y-3881008D02*
X2479705Y-3890531D01*
X2479705Y-3890531D02*
X2489229Y-3909579D01*
X2489229Y-3909579D02*
X2498753Y-3947674D01*
X2498753Y-3947674D02*
X2498753Y-3995293D01*
X2498753Y-3995293D02*
X2489229Y-4033388D01*
X2489229Y-4033388D02*
X2479705Y-4052436D01*
X2479705Y-4052436D02*
X2470182Y-4061960D01*
X2470182Y-4061960D02*
X2451134Y-4071484D01*
X2451134Y-4071484D02*
X2432086Y-4071484D01*
X2432086Y-4071484D02*
X2413039Y-4061960D01*
X2413039Y-4061960D02*
X2403515Y-4052436D01*
X2403515Y-4052436D02*
X2393991Y-4033388D01*
X2393991Y-4033388D02*
X2384467Y-3995293D01*
X2384467Y-3995293D02*
X2384467Y-3947674D01*
X2384467Y-3947674D02*
X2393991Y-3909579D01*
X2393991Y-3909579D02*
X2403515Y-3890531D01*
X2403515Y-3890531D02*
X2413039Y-3881008D01*
X2413039Y-3881008D02*
X2432086Y-3871484D01*
X2622563Y-3871484D02*
X2641610Y-3871484D01*
X2641610Y-3871484D02*
X2660658Y-3881008D01*
X2660658Y-3881008D02*
X2670182Y-3890531D01*
X2670182Y-3890531D02*
X2679705Y-3909579D01*
X2679705Y-3909579D02*
X2689229Y-3947674D01*
X2689229Y-3947674D02*
X2689229Y-3995293D01*
X2689229Y-3995293D02*
X2679705Y-4033388D01*
X2679705Y-4033388D02*
X2670182Y-4052436D01*
X2670182Y-4052436D02*
X2660658Y-4061960D01*
X2660658Y-4061960D02*
X2641610Y-4071484D01*
X2641610Y-4071484D02*
X2622563Y-4071484D01*
X2622563Y-4071484D02*
X2603515Y-4061960D01*
X2603515Y-4061960D02*
X2593991Y-4052436D01*
X2593991Y-4052436D02*
X2584467Y-4033388D01*
X2584467Y-4033388D02*
X2574944Y-3995293D01*
X2574944Y-3995293D02*
X2574944Y-3947674D01*
X2574944Y-3947674D02*
X2584467Y-3909579D01*
X2584467Y-3909579D02*
X2593991Y-3890531D01*
X2593991Y-3890531D02*
X2603515Y-3881008D01*
X2603515Y-3881008D02*
X2622563Y-3871484D01*
X2813039Y-3871484D02*
X2832086Y-3871484D01*
X2832086Y-3871484D02*
X2851134Y-3881008D01*
X2851134Y-3881008D02*
X2860658Y-3890531D01*
X2860658Y-3890531D02*
X2870182Y-3909579D01*
X2870182Y-3909579D02*
X2879705Y-3947674D01*
X2879705Y-3947674D02*
X2879705Y-3995293D01*
X2879705Y-3995293D02*
X2870182Y-4033388D01*
X2870182Y-4033388D02*
X2860658Y-4052436D01*
X2860658Y-4052436D02*
X2851134Y-4061960D01*
X2851134Y-4061960D02*
X2832086Y-4071484D01*
X2832086Y-4071484D02*
X2813039Y-4071484D01*
X2813039Y-4071484D02*
X2793991Y-4061960D01*
X2793991Y-4061960D02*
X2784467Y-4052436D01*
X2784467Y-4052436D02*
X2774944Y-4033388D01*
X2774944Y-4033388D02*
X2765420Y-3995293D01*
X2765420Y-3995293D02*
X2765420Y-3947674D01*
X2765420Y-3947674D02*
X2774944Y-3909579D01*
X2774944Y-3909579D02*
X2784467Y-3890531D01*
X2784467Y-3890531D02*
X2793991Y-3881008D01*
X2793991Y-3881008D02*
X2813039Y-3871484D01*
X2965420Y-4071484D02*
X2965420Y-3938150D01*
X2965420Y-3957198D02*
X2974943Y-3947674D01*
X2974943Y-3947674D02*
X2993991Y-3938150D01*
X2993991Y-3938150D02*
X3022563Y-3938150D01*
X3022563Y-3938150D02*
X3041610Y-3947674D01*
X3041610Y-3947674D02*
X3051134Y-3966722D01*
X3051134Y-3966722D02*
X3051134Y-4071484D01*
X3051134Y-3966722D02*
X3060658Y-3947674D01*
X3060658Y-3947674D02*
X3079705Y-3938150D01*
X3079705Y-3938150D02*
X3108277Y-3938150D01*
X3108277Y-3938150D02*
X3127324Y-3947674D01*
X3127324Y-3947674D02*
X3136848Y-3966722D01*
X3136848Y-3966722D02*
X3136848Y-4071484D01*
X3232086Y-4071484D02*
X3232086Y-3938150D01*
X3232086Y-3957198D02*
X3241610Y-3947674D01*
X3241610Y-3947674D02*
X3260658Y-3938150D01*
X3260658Y-3938150D02*
X3289229Y-3938150D01*
X3289229Y-3938150D02*
X3308277Y-3947674D01*
X3308277Y-3947674D02*
X3317801Y-3966722D01*
X3317801Y-3966722D02*
X3317801Y-4071484D01*
X3317801Y-3966722D02*
X3327324Y-3947674D01*
X3327324Y-3947674D02*
X3346372Y-3938150D01*
X3346372Y-3938150D02*
X3374943Y-3938150D01*
X3374943Y-3938150D02*
X3393991Y-3947674D01*
X3393991Y-3947674D02*
X3403515Y-3966722D01*
X3403515Y-3966722D02*
X3403515Y-4071484D01*
X3793991Y-3861960D02*
X3622563Y-4119103D01*
X4051134Y-3871484D02*
X4070182Y-3871484D01*
X4070182Y-3871484D02*
X4089229Y-3881008D01*
X4089229Y-3881008D02*
X4098753Y-3890531D01*
X4098753Y-3890531D02*
X4108277Y-3909579D01*
X4108277Y-3909579D02*
X4117801Y-3947674D01*
X4117801Y-3947674D02*
X4117801Y-3995293D01*
X4117801Y-3995293D02*
X4108277Y-4033388D01*
X4108277Y-4033388D02*
X4098753Y-4052436D01*
X4098753Y-4052436D02*
X4089229Y-4061960D01*
X4089229Y-4061960D02*
X4070182Y-4071484D01*
X4070182Y-4071484D02*
X4051134Y-4071484D01*
X4051134Y-4071484D02*
X4032086Y-4061960D01*
X4032086Y-4061960D02*
X4022563Y-4052436D01*
X4022563Y-4052436D02*
X4013039Y-4033388D01*
X4013039Y-4033388D02*
X4003515Y-3995293D01*
X4003515Y-3995293D02*
X4003515Y-3947674D01*
X4003515Y-3947674D02*
X4013039Y-3909579D01*
X4013039Y-3909579D02*
X4022563Y-3890531D01*
X4022563Y-3890531D02*
X4032086Y-3881008D01*
X4032086Y-3881008D02*
X4051134Y-3871484D01*
X4203515Y-4052436D02*
X4213039Y-4061960D01*
X4213039Y-4061960D02*
X4203515Y-4071484D01*
X4203515Y-4071484D02*
X4193991Y-4061960D01*
X4193991Y-4061960D02*
X4203515Y-4052436D01*
X4203515Y-4052436D02*
X4203515Y-4071484D01*
X4336848Y-3871484D02*
X4355896Y-3871484D01*
X4355896Y-3871484D02*
X4374944Y-3881008D01*
X4374944Y-3881008D02*
X4384468Y-3890531D01*
X4384468Y-3890531D02*
X4393991Y-3909579D01*
X4393991Y-3909579D02*
X4403515Y-3947674D01*
X4403515Y-3947674D02*
X4403515Y-3995293D01*
X4403515Y-3995293D02*
X4393991Y-4033388D01*
X4393991Y-4033388D02*
X4384468Y-4052436D01*
X4384468Y-4052436D02*
X4374944Y-4061960D01*
X4374944Y-4061960D02*
X4355896Y-4071484D01*
X4355896Y-4071484D02*
X4336848Y-4071484D01*
X4336848Y-4071484D02*
X4317801Y-4061960D01*
X4317801Y-4061960D02*
X4308277Y-4052436D01*
X4308277Y-4052436D02*
X4298753Y-4033388D01*
X4298753Y-4033388D02*
X4289229Y-3995293D01*
X4289229Y-3995293D02*
X4289229Y-3947674D01*
X4289229Y-3947674D02*
X4298753Y-3909579D01*
X4298753Y-3909579D02*
X4308277Y-3890531D01*
X4308277Y-3890531D02*
X4317801Y-3881008D01*
X4317801Y-3881008D02*
X4336848Y-3871484D01*
X4470182Y-3871484D02*
X4593991Y-3871484D01*
X4593991Y-3871484D02*
X4527325Y-3947674D01*
X4527325Y-3947674D02*
X4555896Y-3947674D01*
X4555896Y-3947674D02*
X4574944Y-3957198D01*
X4574944Y-3957198D02*
X4584468Y-3966722D01*
X4584468Y-3966722D02*
X4593991Y-3985769D01*
X4593991Y-3985769D02*
X4593991Y-4033388D01*
X4593991Y-4033388D02*
X4584468Y-4052436D01*
X4584468Y-4052436D02*
X4574944Y-4061960D01*
X4574944Y-4061960D02*
X4555896Y-4071484D01*
X4555896Y-4071484D02*
X4498753Y-4071484D01*
X4498753Y-4071484D02*
X4479706Y-4061960D01*
X4479706Y-4061960D02*
X4470182Y-4052436D01*
X4689229Y-4071484D02*
X4727325Y-4071484D01*
X4727325Y-4071484D02*
X4746372Y-4061960D01*
X4746372Y-4061960D02*
X4755896Y-4052436D01*
X4755896Y-4052436D02*
X4774944Y-4023865D01*
X4774944Y-4023865D02*
X4784468Y-3985769D01*
X4784468Y-3985769D02*
X4784468Y-3909579D01*
X4784468Y-3909579D02*
X4774944Y-3890531D01*
X4774944Y-3890531D02*
X4765420Y-3881008D01*
X4765420Y-3881008D02*
X4746372Y-3871484D01*
X4746372Y-3871484D02*
X4708277Y-3871484D01*
X4708277Y-3871484D02*
X4689229Y-3881008D01*
X4689229Y-3881008D02*
X4679706Y-3890531D01*
X4679706Y-3890531D02*
X4670182Y-3909579D01*
X4670182Y-3909579D02*
X4670182Y-3957198D01*
X4670182Y-3957198D02*
X4679706Y-3976246D01*
X4679706Y-3976246D02*
X4689229Y-3985769D01*
X4689229Y-3985769D02*
X4708277Y-3995293D01*
X4708277Y-3995293D02*
X4746372Y-3995293D01*
X4746372Y-3995293D02*
X4765420Y-3985769D01*
X4765420Y-3985769D02*
X4774944Y-3976246D01*
X4774944Y-3976246D02*
X4784468Y-3957198D01*
X4955896Y-3938150D02*
X4955896Y-4071484D01*
X4908277Y-3861960D02*
X4860658Y-4004817D01*
X4860658Y-4004817D02*
X4984468Y-4004817D01*
X5051134Y-3871484D02*
X5051134Y-3909579D01*
X5127325Y-3871484D02*
X5127325Y-3909579D01*
X5422563Y-4147674D02*
X5413039Y-4138150D01*
X5413039Y-4138150D02*
X5393991Y-4109579D01*
X5393991Y-4109579D02*
X5384468Y-4090531D01*
X5384468Y-4090531D02*
X5374944Y-4061960D01*
X5374944Y-4061960D02*
X5365420Y-4014341D01*
X5365420Y-4014341D02*
X5365420Y-3976246D01*
X5365420Y-3976246D02*
X5374944Y-3928627D01*
X5374944Y-3928627D02*
X5384468Y-3900055D01*
X5384468Y-3900055D02*
X5393991Y-3881008D01*
X5393991Y-3881008D02*
X5413039Y-3852436D01*
X5413039Y-3852436D02*
X5422563Y-3842912D01*
X5479706Y-3871484D02*
X5603515Y-3871484D01*
X5603515Y-3871484D02*
X5536849Y-3947674D01*
X5536849Y-3947674D02*
X5565420Y-3947674D01*
X5565420Y-3947674D02*
X5584468Y-3957198D01*
X5584468Y-3957198D02*
X5593991Y-3966722D01*
X5593991Y-3966722D02*
X5603515Y-3985769D01*
X5603515Y-3985769D02*
X5603515Y-4033388D01*
X5603515Y-4033388D02*
X5593991Y-4052436D01*
X5593991Y-4052436D02*
X5584468Y-4061960D01*
X5584468Y-4061960D02*
X5565420Y-4071484D01*
X5565420Y-4071484D02*
X5508277Y-4071484D01*
X5508277Y-4071484D02*
X5489230Y-4061960D01*
X5489230Y-4061960D02*
X5479706Y-4052436D01*
X5841610Y-4071484D02*
X5841610Y-3871484D01*
X5927325Y-4071484D02*
X5927325Y-3966722D01*
X5927325Y-3966722D02*
X5917801Y-3947674D01*
X5917801Y-3947674D02*
X5898753Y-3938150D01*
X5898753Y-3938150D02*
X5870182Y-3938150D01*
X5870182Y-3938150D02*
X5851134Y-3947674D01*
X5851134Y-3947674D02*
X5841610Y-3957198D01*
X6051134Y-4071484D02*
X6032087Y-4061960D01*
X6032087Y-4061960D02*
X6022563Y-4052436D01*
X6022563Y-4052436D02*
X6013039Y-4033388D01*
X6013039Y-4033388D02*
X6013039Y-3976246D01*
X6013039Y-3976246D02*
X6022563Y-3957198D01*
X6022563Y-3957198D02*
X6032087Y-3947674D01*
X6032087Y-3947674D02*
X6051134Y-3938150D01*
X6051134Y-3938150D02*
X6079706Y-3938150D01*
X6079706Y-3938150D02*
X6098753Y-3947674D01*
X6098753Y-3947674D02*
X6108277Y-3957198D01*
X6108277Y-3957198D02*
X6117801Y-3976246D01*
X6117801Y-3976246D02*
X6117801Y-4033388D01*
X6117801Y-4033388D02*
X6108277Y-4052436D01*
X6108277Y-4052436D02*
X6098753Y-4061960D01*
X6098753Y-4061960D02*
X6079706Y-4071484D01*
X6079706Y-4071484D02*
X6051134Y-4071484D01*
X6232087Y-4071484D02*
X6213039Y-4061960D01*
X6213039Y-4061960D02*
X6203515Y-4042912D01*
X6203515Y-4042912D02*
X6203515Y-3871484D01*
X6384468Y-4061960D02*
X6365420Y-4071484D01*
X6365420Y-4071484D02*
X6327325Y-4071484D01*
X6327325Y-4071484D02*
X6308277Y-4061960D01*
X6308277Y-4061960D02*
X6298753Y-4042912D01*
X6298753Y-4042912D02*
X6298753Y-3966722D01*
X6298753Y-3966722D02*
X6308277Y-3947674D01*
X6308277Y-3947674D02*
X6327325Y-3938150D01*
X6327325Y-3938150D02*
X6365420Y-3938150D01*
X6365420Y-3938150D02*
X6384468Y-3947674D01*
X6384468Y-3947674D02*
X6393991Y-3966722D01*
X6393991Y-3966722D02*
X6393991Y-3985769D01*
X6393991Y-3985769D02*
X6298753Y-4004817D01*
X6470182Y-4061960D02*
X6489230Y-4071484D01*
X6489230Y-4071484D02*
X6527325Y-4071484D01*
X6527325Y-4071484D02*
X6546372Y-4061960D01*
X6546372Y-4061960D02*
X6555896Y-4042912D01*
X6555896Y-4042912D02*
X6555896Y-4033388D01*
X6555896Y-4033388D02*
X6546372Y-4014341D01*
X6546372Y-4014341D02*
X6527325Y-4004817D01*
X6527325Y-4004817D02*
X6498753Y-4004817D01*
X6498753Y-4004817D02*
X6479706Y-3995293D01*
X6479706Y-3995293D02*
X6470182Y-3976246D01*
X6470182Y-3976246D02*
X6470182Y-3966722D01*
X6470182Y-3966722D02*
X6479706Y-3947674D01*
X6479706Y-3947674D02*
X6498753Y-3938150D01*
X6498753Y-3938150D02*
X6527325Y-3938150D01*
X6527325Y-3938150D02*
X6546372Y-3947674D01*
X6622563Y-4147674D02*
X6632087Y-4138150D01*
X6632087Y-4138150D02*
X6651134Y-4109579D01*
X6651134Y-4109579D02*
X6660658Y-4090531D01*
X6660658Y-4090531D02*
X6670182Y-4061960D01*
X6670182Y-4061960D02*
X6679706Y-4014341D01*
X6679706Y-4014341D02*
X6679706Y-3976246D01*
X6679706Y-3976246D02*
X6670182Y-3928627D01*
X6670182Y-3928627D02*
X6660658Y-3900055D01*
X6660658Y-3900055D02*
X6651134Y-3881008D01*
X6651134Y-3881008D02*
X6632087Y-3852436D01*
X6632087Y-3852436D02*
X6622563Y-3842912D01*
M02*
