G04 #@! TF.GenerationSoftware,KiCad,Pcbnew,8.0.4*
G04 #@! TF.CreationDate,2024-08-04T10:49:20-05:00*
G04 #@! TF.ProjectId,DRV5055A4_Test_Board_V0.1,44525635-3035-4354-9134-5f546573745f,rev?*
G04 #@! TF.SameCoordinates,Original*
G04 #@! TF.FileFunction,Copper,L1,Top*
G04 #@! TF.FilePolarity,Positive*
%FSLAX46Y46*%
G04 Gerber Fmt 4.6, Leading zero omitted, Abs format (unit mm)*
G04 Created by KiCad (PCBNEW 8.0.4) date 2024-08-04 10:49:20*
%MOMM*%
%LPD*%
G01*
G04 APERTURE LIST*
G04 Aperture macros list*
%AMRoundRect*
0 Rectangle with rounded corners*
0 $1 Rounding radius*
0 $2 $3 $4 $5 $6 $7 $8 $9 X,Y pos of 4 corners*
0 Add a 4 corners polygon primitive as box body*
4,1,4,$2,$3,$4,$5,$6,$7,$8,$9,$2,$3,0*
0 Add four circle primitives for the rounded corners*
1,1,$1+$1,$2,$3*
1,1,$1+$1,$4,$5*
1,1,$1+$1,$6,$7*
1,1,$1+$1,$8,$9*
0 Add four rect primitives between the rounded corners*
20,1,$1+$1,$2,$3,$4,$5,0*
20,1,$1+$1,$4,$5,$6,$7,0*
20,1,$1+$1,$6,$7,$8,$9,0*
20,1,$1+$1,$8,$9,$2,$3,0*%
%AMFreePoly0*
4,1,19,0.000000,0.744911,0.071157,0.744911,0.207708,0.704816,0.327430,0.627875,0.420627,0.520320,0.479746,0.390866,0.500000,0.250000,0.500000,-0.250000,0.479746,-0.390866,0.420627,-0.520320,0.327430,-0.627875,0.207708,-0.704816,0.071157,-0.744911,0.000000,-0.744911,0.000000,-0.750000,-0.500000,-0.750000,-0.500000,0.750000,0.000000,0.750000,0.000000,0.744911,0.000000,0.744911,
$1*%
%AMFreePoly1*
4,1,19,0.500000,-0.750000,0.000000,-0.750000,0.000000,-0.744911,-0.071157,-0.744911,-0.207708,-0.704816,-0.327430,-0.627875,-0.420627,-0.520320,-0.479746,-0.390866,-0.500000,-0.250000,-0.500000,0.250000,-0.479746,0.390866,-0.420627,0.520320,-0.327430,0.627875,-0.207708,0.704816,-0.071157,0.744911,0.000000,0.744911,0.000000,0.750000,0.500000,0.750000,0.500000,-0.750000,0.500000,-0.750000,
$1*%
G04 Aperture macros list end*
G04 #@! TA.AperFunction,EtchedComponent*
%ADD10C,0.000000*%
G04 #@! TD*
G04 #@! TA.AperFunction,SMDPad,CuDef*
%ADD11RoundRect,0.237500X-0.237500X0.250000X-0.237500X-0.250000X0.237500X-0.250000X0.237500X0.250000X0*%
G04 #@! TD*
G04 #@! TA.AperFunction,ComponentPad*
%ADD12R,1.700000X1.700000*%
G04 #@! TD*
G04 #@! TA.AperFunction,ComponentPad*
%ADD13O,1.700000X1.700000*%
G04 #@! TD*
G04 #@! TA.AperFunction,SMDPad,CuDef*
%ADD14RoundRect,0.237500X-0.237500X0.300000X-0.237500X-0.300000X0.237500X-0.300000X0.237500X0.300000X0*%
G04 #@! TD*
G04 #@! TA.AperFunction,SMDPad,CuDef*
%ADD15FreePoly0,0.000000*%
G04 #@! TD*
G04 #@! TA.AperFunction,SMDPad,CuDef*
%ADD16FreePoly1,0.000000*%
G04 #@! TD*
G04 #@! TA.AperFunction,SMDPad,CuDef*
%ADD17R,0.599999X1.000000*%
G04 #@! TD*
G04 #@! TA.AperFunction,SMDPad,CuDef*
%ADD18RoundRect,0.225000X0.250000X-0.225000X0.250000X0.225000X-0.250000X0.225000X-0.250000X-0.225000X0*%
G04 #@! TD*
G04 #@! TA.AperFunction,Conductor*
%ADD19C,0.400000*%
G04 #@! TD*
G04 APERTURE END LIST*
D10*
G04 #@! TA.AperFunction,EtchedComponent*
G36*
X23900000Y-25050000D02*
G01*
X23400000Y-25050000D01*
X23400000Y-24450000D01*
X23900000Y-24450000D01*
X23900000Y-25050000D01*
G37*
G04 #@! TD.AperFunction*
D11*
X22500000Y-26712500D03*
X22500000Y-28537500D03*
D12*
X26000000Y-31375000D03*
D13*
X23460000Y-31375000D03*
X20920000Y-31375000D03*
D14*
X24500000Y-26762500D03*
X24500000Y-28487500D03*
D15*
X24300000Y-24750000D03*
D16*
X23000000Y-24750000D03*
D17*
X23049999Y-22275000D03*
X24949998Y-22275000D03*
X24000000Y-19875000D03*
D18*
X21500000Y-22150000D03*
X21500000Y-20600000D03*
D19*
X24300000Y-24750000D02*
X24300000Y-25516858D01*
X24300000Y-25516858D02*
X23500000Y-26316858D01*
X23500000Y-26316858D02*
X23500000Y-28537500D01*
X23000000Y-24750000D02*
X23000000Y-23375000D01*
X23000000Y-23375000D02*
X23200000Y-23175000D01*
X23200000Y-23175000D02*
X23749998Y-23175000D01*
X23749998Y-23175000D02*
X23749998Y-22625002D01*
X23749998Y-22625002D02*
X24100000Y-22275000D01*
X24100000Y-22275000D02*
X24949998Y-22275000D01*
X22500000Y-26712500D02*
X22500000Y-25250000D01*
X22500000Y-25250000D02*
X23000000Y-24750000D01*
X25637497Y-26762500D02*
X25649997Y-26775000D01*
X24699999Y-19875000D02*
X25649997Y-20824998D01*
X26025000Y-30300000D02*
X26025000Y-31875000D01*
X24000000Y-19875000D02*
X24699999Y-19875000D01*
X24500000Y-26762500D02*
X25637497Y-26762500D01*
X23362500Y-20512500D02*
X24000000Y-19875000D01*
X25649997Y-26775000D02*
X25649997Y-29924997D01*
X25649997Y-29924997D02*
X26025000Y-30300000D01*
X25649997Y-20824998D02*
X25649997Y-26775000D01*
X21500000Y-20512500D02*
X23362500Y-20512500D01*
X23485000Y-28552500D02*
X23485000Y-29075000D01*
X23500000Y-28537500D02*
X24450000Y-28537500D01*
X23500000Y-28537500D02*
X23485000Y-28552500D01*
X24450000Y-28537500D02*
X24500000Y-28487500D01*
X23485000Y-29075000D02*
X23485000Y-31875000D01*
X22500000Y-28537500D02*
X23500000Y-28537500D01*
X20945000Y-30430000D02*
X20945000Y-31875000D01*
X27379104Y-32294402D02*
X27500000Y-32113058D01*
X20452233Y-32675000D02*
X26998506Y-32675000D01*
X19282196Y-31504963D02*
X20452233Y-32675000D01*
X26998506Y-32675000D02*
X27379104Y-32294402D01*
X21537500Y-22275000D02*
X21500000Y-22237500D01*
X21537500Y-29837500D02*
X20945000Y-30430000D01*
X23049999Y-22275000D02*
X21537500Y-22275000D01*
X21537500Y-22275000D02*
X21537500Y-29837500D01*
X19412159Y-31375000D02*
X20920000Y-31375000D01*
X19282196Y-31504963D02*
X19412159Y-31375000D01*
G04 #@! TA.AperFunction,Conductor*
G36*
X20492632Y-20486905D02*
G01*
X20522875Y-20549890D01*
X20524500Y-20569898D01*
X20524500Y-20873336D01*
X20524501Y-20873355D01*
X20534650Y-20972707D01*
X20534651Y-20972710D01*
X20587996Y-21133694D01*
X20588001Y-21133705D01*
X20677029Y-21278040D01*
X20677032Y-21278044D01*
X20686660Y-21287672D01*
X20720145Y-21348995D01*
X20715161Y-21418687D01*
X20686663Y-21463031D01*
X20677428Y-21472265D01*
X20677424Y-21472271D01*
X20588457Y-21616507D01*
X20588452Y-21616518D01*
X20535144Y-21777393D01*
X20525000Y-21876677D01*
X20525000Y-21900000D01*
X22394000Y-21900000D01*
X22461039Y-21919685D01*
X22506794Y-21972489D01*
X22518000Y-22024000D01*
X22518000Y-22025000D01*
X23076434Y-22025000D01*
X23143473Y-22044685D01*
X23189228Y-22097489D01*
X23199172Y-22166647D01*
X23179537Y-22217890D01*
X23129221Y-22293194D01*
X23074087Y-22426301D01*
X23072613Y-22425690D01*
X23038561Y-22477645D01*
X23000929Y-22498193D01*
X23001300Y-22499089D01*
X22995672Y-22501419D01*
X22995672Y-22501420D01*
X22961532Y-22515561D01*
X22914080Y-22525000D01*
X22331000Y-22525000D01*
X22263961Y-22505315D01*
X22218206Y-22452511D01*
X22207000Y-22401000D01*
X22207000Y-22400000D01*
X21750000Y-22400000D01*
X21750000Y-23099999D01*
X21798308Y-23099999D01*
X21798322Y-23099998D01*
X21897607Y-23089855D01*
X22058481Y-23036547D01*
X22058488Y-23036544D01*
X22141768Y-22985176D01*
X22209161Y-22966735D01*
X22275824Y-22987657D01*
X22306132Y-23016402D01*
X22318014Y-23032274D01*
X22342432Y-23097738D01*
X22333309Y-23154038D01*
X22326423Y-23170661D01*
X22326418Y-23170677D01*
X22311481Y-23245776D01*
X22311481Y-23245778D01*
X22299500Y-23306005D01*
X22299500Y-23726728D01*
X22279815Y-23793767D01*
X22269213Y-23807930D01*
X22193018Y-23895863D01*
X22193015Y-23895867D01*
X22115231Y-24016905D01*
X22115223Y-24016918D01*
X22058263Y-24141643D01*
X22056015Y-24145939D01*
X22014966Y-24285738D01*
X22014963Y-24285748D01*
X21994503Y-24428059D01*
X21994503Y-24484399D01*
X21994500Y-24484409D01*
X21994500Y-24713480D01*
X21974815Y-24780519D01*
X21958181Y-24801161D01*
X21955888Y-24803453D01*
X21955887Y-24803454D01*
X21879222Y-24918192D01*
X21826421Y-25045667D01*
X21826418Y-25045679D01*
X21803652Y-25160133D01*
X21803652Y-25160138D01*
X21799500Y-25181007D01*
X21799500Y-25830448D01*
X21779815Y-25897487D01*
X21763181Y-25918129D01*
X21679661Y-26001648D01*
X21589093Y-26148481D01*
X21589092Y-26148484D01*
X21534826Y-26312247D01*
X21534826Y-26312248D01*
X21534825Y-26312248D01*
X21524500Y-26413315D01*
X21524500Y-27011669D01*
X21524501Y-27011687D01*
X21534825Y-27112752D01*
X21589092Y-27276515D01*
X21589093Y-27276518D01*
X21679661Y-27423351D01*
X21793629Y-27537319D01*
X21827114Y-27598642D01*
X21822130Y-27668334D01*
X21793629Y-27712681D01*
X21679661Y-27826648D01*
X21589093Y-27973481D01*
X21589092Y-27973484D01*
X21534826Y-28137247D01*
X21534826Y-28137248D01*
X21534825Y-28137248D01*
X21524500Y-28238315D01*
X21524500Y-28836669D01*
X21524501Y-28836687D01*
X21534825Y-28937752D01*
X21571109Y-29047249D01*
X21589092Y-29101516D01*
X21679660Y-29248350D01*
X21801650Y-29370340D01*
X21948484Y-29460908D01*
X22112247Y-29515174D01*
X22213323Y-29525500D01*
X22660500Y-29525499D01*
X22727539Y-29545183D01*
X22773294Y-29597987D01*
X22784500Y-29649499D01*
X22784500Y-30134783D01*
X22764815Y-30201822D01*
X22731624Y-30236358D01*
X22588594Y-30336508D01*
X22421508Y-30503594D01*
X22291269Y-30689595D01*
X22236692Y-30733219D01*
X22167193Y-30740412D01*
X22104839Y-30708890D01*
X22088119Y-30689594D01*
X21958113Y-30503926D01*
X21958108Y-30503920D01*
X21791082Y-30336894D01*
X21597578Y-30201399D01*
X21383492Y-30101570D01*
X21383486Y-30101567D01*
X21170000Y-30044364D01*
X21170000Y-30941988D01*
X21112993Y-30909075D01*
X20985826Y-30875000D01*
X20854174Y-30875000D01*
X20727007Y-30909075D01*
X20670000Y-30941988D01*
X20670000Y-30044364D01*
X20669999Y-30044364D01*
X20456513Y-30101567D01*
X20456507Y-30101570D01*
X20242422Y-30201399D01*
X20242420Y-30201400D01*
X20048926Y-30336886D01*
X20048920Y-30336891D01*
X19881891Y-30503920D01*
X19881886Y-30503926D01*
X19746400Y-30697420D01*
X19746399Y-30697422D01*
X19646570Y-30911507D01*
X19646567Y-30911513D01*
X19589364Y-31124999D01*
X19589364Y-31125000D01*
X20486988Y-31125000D01*
X20454075Y-31182007D01*
X20420000Y-31309174D01*
X20420000Y-31440826D01*
X20454075Y-31567993D01*
X20486988Y-31625000D01*
X19589364Y-31625000D01*
X19646567Y-31838486D01*
X19646570Y-31838492D01*
X19746399Y-32052578D01*
X19881894Y-32246082D01*
X20048917Y-32413105D01*
X20242421Y-32548600D01*
X20434393Y-32638118D01*
X20486832Y-32684290D01*
X20505984Y-32751484D01*
X20485768Y-32818365D01*
X20432603Y-32863700D01*
X20381988Y-32874500D01*
X19834223Y-32874500D01*
X19767184Y-32854815D01*
X19731049Y-32819283D01*
X19021326Y-31754699D01*
X19000518Y-31688000D01*
X19000500Y-31685916D01*
X19000500Y-28645266D01*
X19020185Y-28578227D01*
X19072989Y-28532472D01*
X19089561Y-28526289D01*
X19113300Y-28519320D01*
X19341068Y-28415301D01*
X19551715Y-28279927D01*
X19740952Y-28115952D01*
X19904927Y-27926715D01*
X20040301Y-27716068D01*
X20144320Y-27488300D01*
X20146359Y-27481358D01*
X20206504Y-27276518D01*
X20214864Y-27248046D01*
X20250500Y-27000198D01*
X20250500Y-26749802D01*
X20214864Y-26501954D01*
X20177143Y-26373487D01*
X20144323Y-26261708D01*
X20144321Y-26261702D01*
X20040304Y-26033938D01*
X20040294Y-26033920D01*
X19904931Y-25823291D01*
X19904927Y-25823285D01*
X19740952Y-25634047D01*
X19551714Y-25470072D01*
X19551708Y-25470068D01*
X19341079Y-25334705D01*
X19341061Y-25334695D01*
X19113302Y-25230681D01*
X19113300Y-25230680D01*
X19089564Y-25223710D01*
X19030787Y-25185936D01*
X19001762Y-25122380D01*
X19000500Y-25104734D01*
X19000500Y-22423322D01*
X20525001Y-22423322D01*
X20535144Y-22522607D01*
X20588452Y-22683481D01*
X20588457Y-22683492D01*
X20677424Y-22827728D01*
X20677427Y-22827732D01*
X20797267Y-22947572D01*
X20797271Y-22947575D01*
X20941507Y-23036542D01*
X20941518Y-23036547D01*
X21102393Y-23089855D01*
X21201683Y-23099999D01*
X21249999Y-23099998D01*
X21250000Y-23099998D01*
X21250000Y-22400000D01*
X20525001Y-22400000D01*
X20525001Y-22423322D01*
X19000500Y-22423322D01*
X19000500Y-22101099D01*
X19020185Y-22034060D01*
X19029236Y-22021722D01*
X20305242Y-20490514D01*
X20363280Y-20451616D01*
X20433137Y-20450270D01*
X20492632Y-20486905D01*
G37*
G04 #@! TD.AperFunction*
G04 #@! TA.AperFunction,Conductor*
G36*
X22274549Y-32041110D02*
G01*
X22291269Y-32060405D01*
X22421505Y-32246401D01*
X22588599Y-32413495D01*
X22685384Y-32481265D01*
X22782165Y-32549032D01*
X22782167Y-32549033D01*
X22782170Y-32549035D01*
X22854037Y-32582547D01*
X22973209Y-32638118D01*
X23025648Y-32684290D01*
X23044800Y-32751484D01*
X23024584Y-32818365D01*
X22971419Y-32863700D01*
X22920804Y-32874500D01*
X21458012Y-32874500D01*
X21390973Y-32854815D01*
X21345218Y-32802011D01*
X21335274Y-32732853D01*
X21364299Y-32669297D01*
X21405607Y-32638118D01*
X21597578Y-32548600D01*
X21791082Y-32413105D01*
X21958105Y-32246082D01*
X22088119Y-32060405D01*
X22142696Y-32016781D01*
X22212195Y-32009588D01*
X22274549Y-32041110D01*
G37*
G04 #@! TD.AperFunction*
G04 #@! TA.AperFunction,Conductor*
G36*
X24584340Y-32263068D02*
G01*
X24640274Y-32304939D01*
X24657189Y-32335917D01*
X24706202Y-32467328D01*
X24706206Y-32467335D01*
X24792452Y-32582544D01*
X24792455Y-32582547D01*
X24884208Y-32651234D01*
X24926079Y-32707168D01*
X24931063Y-32776859D01*
X24897577Y-32838182D01*
X24836254Y-32871666D01*
X24809897Y-32874500D01*
X23999196Y-32874500D01*
X23932157Y-32854815D01*
X23886402Y-32802011D01*
X23876458Y-32732853D01*
X23905483Y-32669297D01*
X23946791Y-32638118D01*
X24137830Y-32549035D01*
X24331401Y-32413495D01*
X24453329Y-32291566D01*
X24514648Y-32258084D01*
X24584340Y-32263068D01*
G37*
G04 #@! TD.AperFunction*
G04 #@! TA.AperFunction,Conductor*
G36*
X25681875Y-19395185D02*
G01*
X25708540Y-19418288D01*
X27964845Y-22021716D01*
X27969205Y-22026746D01*
X27998236Y-22090299D01*
X27999500Y-22107957D01*
X27999500Y-25104734D01*
X27979815Y-25171773D01*
X27927011Y-25217528D01*
X27910437Y-25223710D01*
X27886700Y-25230680D01*
X27886697Y-25230681D01*
X27658938Y-25334695D01*
X27658920Y-25334705D01*
X27448291Y-25470068D01*
X27448285Y-25470072D01*
X27259047Y-25634047D01*
X27095072Y-25823285D01*
X27095068Y-25823291D01*
X26959705Y-26033920D01*
X26959695Y-26033938D01*
X26855678Y-26261702D01*
X26855676Y-26261708D01*
X26785136Y-26501951D01*
X26785135Y-26501955D01*
X26764800Y-26643392D01*
X26749500Y-26749802D01*
X26749500Y-27000198D01*
X26751152Y-27011687D01*
X26785135Y-27248044D01*
X26785136Y-27248048D01*
X26855676Y-27488291D01*
X26855678Y-27488297D01*
X26959695Y-27716061D01*
X26959705Y-27716079D01*
X27095068Y-27926708D01*
X27095072Y-27926714D01*
X27259047Y-28115952D01*
X27448285Y-28279927D01*
X27448291Y-28279931D01*
X27658920Y-28415294D01*
X27658928Y-28415298D01*
X27658932Y-28415301D01*
X27658935Y-28415302D01*
X27658938Y-28415304D01*
X27886693Y-28519317D01*
X27886700Y-28519320D01*
X27910434Y-28526288D01*
X27969211Y-28564062D01*
X27998238Y-28627617D01*
X27999500Y-28645266D01*
X27999500Y-31685916D01*
X27979815Y-31752955D01*
X27978674Y-31754699D01*
X27576661Y-32357719D01*
X27523096Y-32402580D01*
X27453780Y-32411360D01*
X27390721Y-32381271D01*
X27353940Y-32321867D01*
X27350198Y-32275679D01*
X27350500Y-32272873D01*
X27350499Y-30477128D01*
X27344091Y-30417517D01*
X27342810Y-30414083D01*
X27293797Y-30282671D01*
X27293793Y-30282664D01*
X27207547Y-30167455D01*
X27207544Y-30167452D01*
X27092335Y-30081206D01*
X27092328Y-30081202D01*
X26957482Y-30030908D01*
X26957483Y-30030908D01*
X26897883Y-30024501D01*
X26897881Y-30024500D01*
X26897873Y-30024500D01*
X26897865Y-30024500D01*
X26749680Y-30024500D01*
X26682641Y-30004815D01*
X26646578Y-29969391D01*
X26569115Y-29853459D01*
X26569114Y-29853458D01*
X26471542Y-29755886D01*
X26386815Y-29671158D01*
X26353331Y-29609834D01*
X26350497Y-29583477D01*
X26350497Y-20756002D01*
X26323578Y-20620675D01*
X26323577Y-20620674D01*
X26323577Y-20620670D01*
X26294259Y-20549890D01*
X26270775Y-20493193D01*
X26270773Y-20493189D01*
X26270772Y-20493187D01*
X26221278Y-20419114D01*
X26194111Y-20378455D01*
X26194109Y-20378452D01*
X26194106Y-20378449D01*
X25402837Y-19587181D01*
X25369352Y-19525858D01*
X25374336Y-19456167D01*
X25416208Y-19400233D01*
X25481672Y-19375816D01*
X25490518Y-19375500D01*
X25614836Y-19375500D01*
X25681875Y-19395185D01*
G37*
G04 #@! TD.AperFunction*
M02*
